<svg width="1673" height="333" viewBox="0 0 1673 333" fill="none" xmlns="http://www.w3.org/2000/svg">
<path d="M654.758 48.1228L617.376 28.8146C615.219 27.7008 612.681 29.2201 612.806 31.5495L614.982 71.9285C615.107 74.2578 617.803 75.65 619.834 74.4345L655.04 53.3638C657.071 52.1483 656.914 49.2366 654.758 48.1228Z" fill="#F2F9FD"/>
<path fill-rule="evenodd" clip-rule="evenodd" d="M656.409 55.4296C660.065 53.2417 659.783 48.0008 655.901 45.9959L618.519 26.6877C614.638 24.6828 610.068 27.4177 610.294 31.6105L612.47 71.9895C612.695 76.1822 617.547 78.6883 621.203 76.5004L656.409 55.4296ZM617.376 28.8146L654.758 48.1228C656.914 49.2366 657.071 52.1483 655.04 53.3638L619.834 74.4345C617.803 75.65 615.107 74.2578 614.982 71.9285L612.806 31.5495C612.681 29.2201 615.219 27.7008 617.376 28.8146Z" fill="#F2F9FD"/>
<path d="M159.598 54.6712L157.781 12.6364C157.676 10.2116 155.096 8.76335 153.137 10.0296L119.176 31.9798C117.217 33.2461 117.348 36.2771 119.412 37.4357L155.19 57.5203C157.254 58.6788 159.703 57.0961 159.598 54.6712Z" fill="#F2F9FD"/>
<path fill-rule="evenodd" clip-rule="evenodd" d="M154.077 59.7349C157.792 61.8204 162.2 58.9714 162.012 54.6067L160.195 12.5718C160.006 8.20715 155.362 5.60031 151.836 7.87952L117.875 29.8298C114.348 32.109 114.584 37.5648 118.299 39.6503L154.077 59.7349ZM157.781 12.6364L159.598 54.6712C159.703 57.0961 157.254 58.6788 155.19 57.5203L119.412 37.4357C117.348 36.2771 117.217 33.2461 119.176 31.9798L153.137 10.0296C155.096 8.76335 157.676 10.2116 157.781 12.6364Z" fill="#F2F9FD"/>
<path d="M46.311 198.757L44.4943 156.722C44.3895 154.297 41.8096 152.849 39.8505 154.115L5.88897 176.066C3.92987 177.332 4.06085 180.363 6.12477 181.521L41.903 201.606C43.9669 202.765 46.4158 201.182 46.311 198.757Z" fill="#F2F9FD"/>
<path fill-rule="evenodd" clip-rule="evenodd" d="M40.7904 203.821C44.5054 205.906 48.9134 203.057 48.7248 198.692L46.9081 156.658C46.7194 152.293 42.0756 149.686 38.5493 151.965L4.58774 173.915C1.06135 176.195 1.29715 181.651 5.01218 183.736L40.7904 203.821ZM44.4943 156.722L46.311 198.757C46.4158 201.182 43.9669 202.765 41.903 201.606L6.12477 181.521C4.06085 180.363 3.92987 177.332 5.88897 176.066L39.8505 154.115C41.8096 152.849 44.3895 154.297 44.4943 156.722Z" fill="#F2F9FD"/>
<path d="M1651.31 275.757L1649.49 233.722C1649.39 231.297 1646.81 229.849 1644.85 231.115L1610.89 253.066C1608.93 254.332 1609.06 257.363 1611.12 258.521L1646.9 278.606C1648.97 279.765 1651.42 278.182 1651.31 275.757Z" fill="#F2F9FD"/>
<path fill-rule="evenodd" clip-rule="evenodd" d="M1645.79 280.821C1649.51 282.906 1653.91 280.057 1653.72 275.692L1651.91 233.658C1651.72 229.293 1647.08 226.686 1643.55 228.965L1609.59 250.915C1606.06 253.195 1606.3 258.651 1610.01 260.736L1645.79 280.821ZM1649.49 233.722L1651.31 275.757C1651.42 278.182 1648.97 279.765 1646.9 278.606L1611.12 258.521C1609.06 257.363 1608.93 254.332 1610.89 253.066L1644.85 231.115C1646.81 229.849 1649.39 231.297 1649.49 233.722Z" fill="#F2F9FD"/>
<path fill-rule="evenodd" clip-rule="evenodd" d="M183.214 113.892L186.493 184.104C186.682 188.155 182.6 190.813 179.145 188.889L119.259 155.544C115.804 153.62 115.568 148.557 118.833 146.431L175.441 109.564C178.707 107.438 183.025 109.842 183.214 113.892ZM190.525 183.982C190.865 191.273 183.518 196.058 177.299 192.596L117.413 159.25C111.195 155.787 110.769 146.674 116.647 142.846L173.255 105.98C179.133 102.152 186.906 106.48 187.246 113.771L190.525 183.982Z" fill="#E0E7EB"/>
<path fill-rule="evenodd" clip-rule="evenodd" d="M94.4693 55.0982L61.4238 117.134C59.5175 120.713 54.6504 120.913 52.663 117.495L18.2112 58.2377C16.2238 54.8194 18.6066 50.3461 22.5003 50.1858L89.9976 47.407C93.8913 47.2467 96.3755 51.5196 94.4693 55.0982ZM64.9524 119.089C61.5211 125.53 52.7604 125.891 49.1831 119.738L14.7313 60.4811C11.1539 54.3281 15.443 46.2762 22.4516 45.9877L89.9489 43.2089C96.9575 42.9203 101.429 50.6115 97.9979 57.053L64.9524 119.089Z" fill="#44AADF"/>
<path fill-rule="evenodd" clip-rule="evenodd" d="M1587.21 -17.1075L1590.49 53.1043C1590.68 57.1546 1586.6 59.8129 1583.15 57.8894L1523.26 24.5437C1519.8 22.6201 1519.57 17.5573 1522.83 15.4307L1579.44 -21.4356C1582.71 -23.5623 1587.03 -21.1578 1587.21 -17.1075ZM1594.52 52.9825C1594.87 60.273 1587.52 65.058 1581.3 61.5955L1521.41 28.2499C1515.19 24.7874 1514.77 15.6744 1520.65 11.8464L1577.26 -25.0199C1583.13 -28.8479 1590.91 -24.5199 1591.25 -17.2294L1594.52 52.9825Z" fill="#99CC33"/>
<path fill-rule="evenodd" clip-rule="evenodd" d="M1437.21 170.892L1440.49 241.104C1440.68 245.155 1436.6 247.813 1433.15 245.889L1373.26 212.544C1369.8 210.62 1369.57 205.557 1372.83 203.431L1429.44 166.564C1432.71 164.438 1437.03 166.842 1437.21 170.892ZM1444.52 240.982C1444.87 248.273 1437.52 253.058 1431.3 249.596L1371.41 216.25C1365.19 212.787 1364.77 203.674 1370.65 199.846L1427.26 162.98C1433.13 159.152 1440.91 163.48 1441.25 170.771L1444.52 240.982Z" fill="#44AADF"/>
<path fill-rule="evenodd" clip-rule="evenodd" d="M1065.21 -27.1075L1068.49 43.1043C1068.68 47.1546 1064.6 49.8129 1061.15 47.8894L1001.26 14.5437C997.804 12.6201 997.568 7.55732 1000.83 5.43066L1057.44 -31.4356C1060.71 -33.5623 1065.03 -31.1578 1065.21 -27.1075ZM1072.52 42.9825C1072.87 50.273 1065.52 55.058 1059.3 51.5955L999.413 18.2499C993.195 14.7874 992.769 5.67437 998.647 1.84637L1055.26 -35.0199C1061.13 -38.8479 1068.91 -34.5199 1069.25 -27.2294L1072.52 42.9825Z" fill="#44AADF"/>
<path fill-rule="evenodd" clip-rule="evenodd" d="M389.899 79.5502L418.461 119.896C420.783 123.176 418.719 127.518 414.745 127.711L365.869 130.092C361.895 130.286 358.993 126.186 360.644 122.712L380.959 79.9856C382.611 76.5122 387.577 76.2703 389.899 79.5502ZM421.836 117.696C426.016 123.6 422.3 131.415 415.148 131.763L366.271 134.144C359.119 134.492 353.895 127.113 356.867 120.861L377.182 78.1338C380.155 71.8817 389.095 71.4463 393.274 77.35L421.836 117.696Z" fill="#C2E085"/>
<path d="M484.411 114.282C481.166 117.569 475.579 116.111 474.355 111.657L465.914 80.9508C464.69 76.4972 468.746 72.3884 473.215 73.5549L504.028 81.5981C508.497 82.7646 510.028 88.3316 506.783 91.6187L484.411 114.282Z" fill="#EBF5D6"/>
<path d="M535.002 120.538C531.712 122.652 527.608 119.094 528.171 114.615L533.108 75.3405C533.598 71.4499 537.353 69.737 540.125 72.1403L564.04 92.8745C566.812 95.2778 566.713 100.161 563.855 101.997L535.002 120.538Z" stroke="#C2E085" stroke-width="4" stroke-linecap="round" stroke-linejoin="round"/>
<path fill-rule="evenodd" clip-rule="evenodd" d="M465.858 42.9668L473.329 54.8395C473.553 55.1962 474.08 55.1762 474.276 54.8035L480.823 42.397C481.02 42.0243 480.739 41.5784 480.318 41.5945L466.3 42.1282C465.879 42.1442 465.633 42.6101 465.858 42.9668ZM471.475 56.0058C472.598 57.7892 475.23 57.689 476.213 55.8254L482.76 43.419C483.743 41.5554 482.34 39.3261 480.235 39.4062L466.217 39.9399C464.111 40.0201 462.882 42.3496 464.004 44.1331L471.475 56.0058Z" fill="#44AADF"/>
<path d="M1438.84 105.282C1442.08 108.569 1447.67 107.111 1448.89 102.657L1457.34 71.9508C1458.56 67.4972 1454.5 63.3884 1450.03 64.5549L1419.22 72.5981C1414.75 73.7646 1413.22 79.3316 1416.47 82.6187L1438.84 105.282Z" fill="#EBF5D6"/>
<path d="M1388.25 111.538C1391.54 113.652 1395.64 110.094 1395.08 105.615L1390.14 66.3405C1389.65 62.4499 1385.9 60.737 1383.12 63.1403L1359.21 83.8745C1356.44 86.2778 1356.54 91.1605 1359.39 92.9972L1388.25 111.538Z" stroke="#C2E085" stroke-width="4" stroke-linecap="round" stroke-linejoin="round"/>
<path fill-rule="evenodd" clip-rule="evenodd" d="M1457.39 33.9668L1449.92 45.8395C1449.7 46.1962 1449.17 46.1762 1448.97 45.8035L1442.43 33.397C1442.23 33.0243 1442.51 32.5784 1442.93 32.5945L1456.95 33.1282C1457.37 33.1442 1457.62 33.6101 1457.39 33.9668ZM1451.77 47.0058C1450.65 48.7892 1448.02 48.689 1447.04 46.8254L1440.49 34.419C1439.51 32.5554 1440.91 30.3261 1443.02 30.4062L1457.03 30.9399C1459.14 31.0201 1460.37 33.3496 1459.25 35.1331L1451.77 47.0058Z" fill="#44AADF"/>
<path d="M1525.48 91.9014C1521.57 91.9613 1520.12 97.1964 1523.07 100.615L1548.92 130.594C1551.48 133.564 1555.55 132.912 1556.53 129.376L1564.98 98.8716C1565.95 95.3358 1563.17 91.324 1559.77 91.376L1525.48 91.9014Z" stroke="#C2E085" stroke-width="4" stroke-linecap="round" stroke-linejoin="round"/>
<path fill-rule="evenodd" clip-rule="evenodd" d="M1467.86 160.845L1475.33 148.973C1475.55 148.616 1476.08 148.636 1476.28 149.009L1482.82 161.415C1483.02 161.788 1482.74 162.234 1482.32 162.218L1468.3 161.684C1467.88 161.668 1467.63 161.202 1467.86 160.845ZM1473.48 147.806C1474.6 146.023 1477.23 146.123 1478.21 147.987L1484.76 160.393C1485.74 162.257 1484.34 164.486 1482.23 164.406L1468.22 163.872C1466.11 163.792 1464.88 161.462 1466 159.679L1473.48 147.806Z" fill="#44AADF"/>
<path fill-rule="evenodd" clip-rule="evenodd" d="M1452.38 320.688L1459.85 308.815C1460.08 308.458 1460.6 308.478 1460.8 308.851L1467.35 321.257C1467.54 321.63 1467.26 322.076 1466.84 322.06L1452.82 321.526C1452.4 321.51 1452.16 321.044 1452.38 320.688ZM1458 307.649C1459.12 305.865 1461.75 305.965 1462.74 307.829L1469.28 320.235C1470.27 322.099 1468.86 324.328 1466.76 324.248L1452.74 323.714C1450.63 323.634 1449.4 321.305 1450.53 319.521L1458 307.649Z" fill="#44AADF"/>
<path d="M306.603 37.7454C309.564 34.2009 315.252 35.1912 316.841 39.528L327.797 69.4297C329.386 73.7665 325.685 78.1973 321.134 77.405L289.761 71.9425C285.21 71.1502 283.224 65.7292 286.185 62.1846L306.603 37.7454Z" fill="#EBF5D6"/>
<path d="M255.667 35.7029C258.77 33.3236 263.155 36.5296 262.965 41.0391L261.299 80.5881C261.134 84.5059 257.533 86.524 254.571 84.3587L229.021 65.6772C226.059 63.5118 225.753 58.6377 228.45 56.5705L255.667 35.7029Z" stroke="#C2E085" stroke-width="4" stroke-linecap="round" stroke-linejoin="round"/>
<path fill-rule="evenodd" clip-rule="evenodd" d="M331 107.278L322.571 96.0656C322.318 95.7287 321.795 95.7923 321.63 96.18L316.134 109.086C315.969 109.474 316.285 109.895 316.704 109.844L330.629 108.151C331.047 108.1 331.254 107.615 331 107.278ZM324.322 94.7497C323.056 93.0654 320.441 93.3834 319.615 95.322L314.119 108.228C313.294 110.167 314.876 112.272 316.968 112.018L330.893 110.325C332.985 110.07 334.017 107.647 332.751 105.963L324.322 94.7497Z" fill="#44AADF"/>
<path d="M1164.12 103.684C1161.5 107.484 1155.74 107.018 1153.77 102.845L1140.12 74.0698C1138.14 69.8964 1141.42 65.1459 1146.03 65.5188L1177.77 68.0905C1182.37 68.4635 1184.85 73.6803 1182.22 77.4807L1164.12 103.684Z" fill="#44AADF"/>
<path d="M1215.03 101.062C1212.16 103.715 1207.5 100.923 1207.28 96.4151L1205.32 56.8793C1205.13 52.9628 1208.53 50.624 1211.68 52.5096L1238.83 68.7771C1241.98 70.6627 1242.72 75.4885 1240.23 77.7935L1215.03 101.062Z" stroke="#99CC33" stroke-width="4" stroke-linecap="round" stroke-linejoin="round"/>
<path fill-rule="evenodd" clip-rule="evenodd" d="M1133.47 36.6723L1142.89 47.0677C1143.17 47.38 1143.69 47.2689 1143.82 46.8677L1148.11 33.5131C1148.24 33.1119 1147.89 32.7216 1147.47 32.8105L1133.76 35.7696C1133.35 35.8585 1133.19 36.36 1133.47 36.6723ZM1141.27 48.5381C1142.68 50.0996 1145.26 49.544 1145.9 47.5379L1150.2 34.1834C1150.84 32.1773 1149.07 30.2254 1147.01 30.6699L1133.3 33.629C1131.24 34.0735 1130.43 36.5811 1131.85 38.1426L1141.27 48.5381Z" fill="#44AADF"/>
<path d="M1291.86 142.453C1286.92 142.812 1283.98 136.722 1286.59 131.518L1306.47 91.7761C1309.06 86.5956 1315.21 86.1777 1317.55 91.0229L1335.41 128.024C1337.75 132.869 1334.54 139.355 1329.62 139.712L1291.86 142.453Z" fill="#C2E085"/>
<path d="M228.951 100.611C231.912 97.0665 237.6 98.0568 239.189 102.394L265.513 174.236C267.102 178.573 263.401 183.004 258.85 182.212L183.471 169.087C178.92 168.295 176.934 162.874 179.895 159.329L228.951 100.611Z" fill="#EBF5D6"/>
<path d="M1542.59 190.426C1545.55 186.881 1551.24 187.871 1552.83 192.208L1574.43 251.151C1576.01 255.488 1572.31 259.918 1567.76 259.126L1505.92 248.358C1501.37 247.566 1499.38 242.145 1502.34 238.6L1542.59 190.426Z" fill="#E0E7EB"/>
<path fill-rule="evenodd" clip-rule="evenodd" d="M792.38 51.6876L799.851 39.8149C800.076 39.4582 800.602 39.4782 800.799 39.851L807.345 52.2574C807.542 52.6301 807.261 53.076 806.84 53.0599L792.823 52.5262C792.402 52.5102 792.156 52.0443 792.38 51.6876ZM797.998 38.6486C799.12 36.8652 801.752 36.9654 802.735 38.829L809.282 51.2354C810.265 53.099 808.863 55.3283 806.757 55.2482L792.739 54.7145C790.634 54.6343 789.404 52.3048 790.527 50.5214L797.998 38.6486Z" fill="#99CC33"/>
<path d="M799.851 39.8149L792.38 51.6876C792.156 52.0443 792.402 52.5102 792.823 52.5262L806.84 53.0599C807.261 53.076 807.542 52.6301 807.345 52.2574L800.799 39.851C800.602 39.4782 800.076 39.4582 799.851 39.8149Z" fill="#99CC33"/>
<path fill-rule="evenodd" clip-rule="evenodd" d="M315.468 191.546L308.318 179.478C308.103 179.115 308.362 178.656 308.783 178.651L322.81 178.493C323.231 178.489 323.5 178.942 323.293 179.309L316.416 191.536C316.21 191.903 315.683 191.909 315.468 191.546ZM306.434 180.594C305.36 178.781 306.651 176.485 308.758 176.462L322.785 176.304C324.892 176.28 326.235 178.546 325.202 180.383L318.325 192.609C317.292 194.446 314.658 194.475 313.584 192.663L306.434 180.594Z" fill="#99CC33"/>
<path d="M308.318 179.478L315.468 191.546C315.683 191.909 316.21 191.903 316.416 191.536L323.293 179.309C323.5 178.942 323.231 178.489 322.81 178.493L308.783 178.651C308.362 178.656 308.103 179.115 308.318 179.478Z" fill="#99CC33"/>
<path fill-rule="evenodd" clip-rule="evenodd" d="M196.847 48.1922L189.697 36.1236C189.482 35.761 189.74 35.3018 190.162 35.2971L204.189 35.1392C204.61 35.1344 204.879 35.5876 204.672 35.955L197.795 48.1815C197.589 48.5488 197.062 48.5548 196.847 48.1922ZM187.813 37.2397C186.739 35.4269 188.03 33.1311 190.137 33.1074L204.164 32.9495C206.271 32.9258 207.614 35.1918 206.581 37.0284L199.704 49.255C198.671 51.0916 196.037 51.1213 194.963 49.3084L187.813 37.2397Z" fill="#44AADF"/>
<path d="M189.697 36.1236L196.847 48.1922C197.062 48.5548 197.589 48.5488 197.795 48.1815L204.672 35.955C204.879 35.5876 204.61 35.1344 204.189 35.1392L190.162 35.2971C189.74 35.3018 189.482 35.761 189.697 36.1236Z" fill="#44AADF"/>
<path fill-rule="evenodd" clip-rule="evenodd" d="M122.847 269.192L115.697 257.124C115.482 256.761 115.74 256.302 116.162 256.297L130.189 256.139C130.61 256.134 130.879 256.588 130.672 256.955L123.795 269.182C123.589 269.549 123.062 269.555 122.847 269.192ZM113.813 258.24C112.739 256.427 114.03 254.131 116.137 254.107L130.164 253.949C132.271 253.926 133.614 256.192 132.581 258.028L125.704 270.255C124.671 272.092 122.037 272.121 120.963 270.308L113.813 258.24Z" fill="#C2CFD6"/>
<path d="M115.697 257.124L122.847 269.192C123.062 269.555 123.589 269.549 123.795 269.182L130.672 256.955C130.879 256.588 130.61 256.134 130.189 256.139L116.162 256.297C115.74 256.302 115.482 256.761 115.697 257.124Z" fill="#C2CFD6"/>
<path fill-rule="evenodd" clip-rule="evenodd" d="M962.847 27.1922L955.697 15.1236C955.482 14.761 955.74 14.3018 956.162 14.2971L970.189 14.1392C970.61 14.1344 970.879 14.5876 970.672 14.955L963.795 27.1815C963.589 27.5488 963.062 27.5548 962.847 27.1922ZM953.813 16.2397C952.739 14.4269 954.03 12.1311 956.137 12.1074L970.164 11.9495C972.271 11.9258 973.614 14.1918 972.581 16.0284L965.704 28.255C964.671 30.0916 962.037 30.1213 960.963 28.3084L953.813 16.2397Z" fill="#EBF5D6"/>
<path d="M955.697 15.1236L962.847 27.1922C963.062 27.5548 963.589 27.5488 963.795 27.1815L970.672 14.955C970.879 14.5876 970.61 14.1344 970.189 14.1392L956.162 14.2971C955.74 14.3018 955.482 14.761 955.697 15.1236Z" fill="#EBF5D6"/>
<path fill-rule="evenodd" clip-rule="evenodd" d="M1299.85 43.1922L1292.7 31.1236C1292.48 30.761 1292.74 30.3018 1293.16 30.2971L1307.19 30.1392C1307.61 30.1344 1307.88 30.5876 1307.67 30.955L1300.8 43.1815C1300.59 43.5488 1300.06 43.5548 1299.85 43.1922ZM1290.81 32.2397C1289.74 30.4269 1291.03 28.1311 1293.14 28.1074L1307.16 27.9495C1309.27 27.9258 1310.61 30.1918 1309.58 32.0284L1302.7 44.255C1301.67 46.0916 1299.04 46.1213 1297.96 44.3084L1290.81 32.2397Z" fill="#A3B7C2"/>
<path d="M1292.7 31.1236L1299.85 43.1922C1300.06 43.5548 1300.59 43.5488 1300.8 43.1815L1307.67 30.955C1307.88 30.5876 1307.61 30.1344 1307.19 30.1392L1293.16 30.2971C1292.74 30.3018 1292.48 30.761 1292.7 31.1236Z" fill="#A3B7C2"/>
</svg>
