<svg width="1710" height="1127" viewBox="0 0 1710 1127" fill="none" xmlns="http://www.w3.org/2000/svg">
<g filter="url(#filter0_f)">
<path fill-rule="evenodd" clip-rule="evenodd" d="M452.17 117.031L417.947 142.121L456.787 159.215L452.17 117.031ZM455.958 114.874C455.707 112.579 453.065 111.416 451.202 112.781L414.185 139.919C412.322 141.284 412.636 144.154 414.75 145.084L456.761 163.574C458.874 164.504 461.202 162.797 460.951 160.501L455.958 114.874Z" fill="#EBF5D6"/>
</g>
<path fill-rule="evenodd" clip-rule="evenodd" d="M1329.17 75.0313L1294.95 100.121L1333.79 117.215L1329.17 75.0313ZM1332.96 72.8744C1332.71 70.5787 1330.06 69.4158 1328.2 70.7813L1291.18 97.9189C1289.32 99.2844 1289.64 102.154 1291.75 103.084L1333.76 121.574C1335.87 122.504 1338.2 120.797 1337.95 118.501L1332.96 72.8744Z" fill="#EBF5D6"/>
<path fill-rule="evenodd" clip-rule="evenodd" d="M392.056 915.215L350.698 924.716L379.605 955.783L392.056 915.215ZM396.388 914.733C397.066 912.525 395.099 910.412 392.848 910.929L348.114 921.206C345.864 921.723 345.017 924.483 346.59 926.173L377.857 959.776C379.43 961.466 382.243 960.82 382.921 958.612L396.388 914.733Z" fill="#EBF5D6"/>
<path fill-rule="evenodd" clip-rule="evenodd" d="M264.465 303.981L247.382 389.765L330.215 361.667L264.465 303.981ZM265.801 299.832C264.065 298.309 261.331 299.236 260.88 301.501L243.121 390.683C242.67 392.947 244.84 394.851 247.027 394.109L333.14 364.899C335.327 364.157 335.891 361.326 334.155 359.803L265.801 299.832Z" fill="#EBF5D6"/>
<g filter="url(#filter1_f)">
<path fill-rule="evenodd" clip-rule="evenodd" d="M1318.42 963.324L1365.16 1037.26L1405.82 959.819L1318.42 963.324ZM1316.53 959.397C1314.23 959.489 1312.88 962.045 1314.12 963.997L1362.7 1040.86C1363.94 1042.81 1366.82 1042.7 1367.89 1040.65L1410.17 960.145C1411.24 958.101 1409.7 955.66 1407.39 955.753L1316.53 959.397Z" fill="#EBF5D6"/>
</g>
<path fill-rule="evenodd" clip-rule="evenodd" d="M1475.51 273.306L1458.43 359.09L1541.26 330.992L1475.51 273.306ZM1476.84 269.156C1475.11 267.633 1472.37 268.561 1471.92 270.826L1454.16 360.007C1453.71 362.272 1455.88 364.176 1458.07 363.434L1544.18 334.223C1546.37 333.482 1546.93 330.65 1545.2 329.127L1476.84 269.156Z" fill="#EBF5D6"/>
<path fill-rule="evenodd" clip-rule="evenodd" d="M1439.39 163.979L1423.86 176.456L1442.43 183.664L1439.39 163.979ZM1443.08 161.656C1442.73 159.374 1440.03 158.33 1438.23 159.776L1420.01 174.423C1418.21 175.87 1418.65 178.723 1420.8 179.558L1442.6 188.02C1444.75 188.855 1447 187.047 1446.65 184.765L1443.08 161.656Z" fill="#EBF5D6"/>
<path fill-rule="evenodd" clip-rule="evenodd" d="M183.39 572.979L167.863 585.456L186.432 592.664L183.39 572.979ZM187.078 570.656C186.725 568.374 184.034 567.33 182.234 568.776L164.007 583.423C162.207 584.87 162.648 587.723 164.801 588.558L186.599 597.02C188.752 597.855 191.002 596.047 190.649 593.765L187.078 570.656Z" fill="#EBF5D6"/>
<path fill-rule="evenodd" clip-rule="evenodd" d="M444.333 838.506L436.838 856.96L456.568 854.224L444.333 838.506ZM446.426 834.682C445.008 832.859 442.148 833.256 441.279 835.396L432.48 857.06C431.611 859.199 433.384 861.477 435.672 861.16L458.833 857.948C461.12 857.631 462.206 854.956 460.788 853.134L446.426 834.682Z" fill="#EBF5D6"/>
<path fill-rule="evenodd" clip-rule="evenodd" d="M1510.47 918.134L1513.18 937.868L1528.91 925.657L1510.47 918.134ZM1510.38 913.776C1508.24 912.904 1505.96 914.674 1506.27 916.962L1509.45 940.128C1509.76 942.416 1512.43 943.506 1514.26 942.09L1532.73 927.756C1534.56 926.34 1534.16 923.48 1532.03 922.608L1510.38 913.776Z" fill="#EBF5D6"/>
<defs>
<filter id="filter0_f" x="408" y="98" width="73.9396" height="70.7838" filterUnits="userSpaceOnUse" color-interpolation-filters="sRGB">
<feFlood flood-opacity="0" result="BackgroundImageFix"/>
<feBlend mode="normal" in="SourceGraphic" in2="BackgroundImageFix" result="shape"/>
<feGaussianBlur stdDeviation="2" result="effect1_foregroundBlur"/>
</filter>
<filter id="filter1_f" x="1287.46" y="914.085" width="128.102" height="133.229" filterUnits="userSpaceOnUse" color-interpolation-filters="sRGB">
<feFlood flood-opacity="0" result="BackgroundImageFix"/>
<feBlend mode="normal" in="SourceGraphic" in2="BackgroundImageFix" result="shape"/>
<feGaussianBlur stdDeviation="2" result="effect1_foregroundBlur"/>
</filter>
</defs>
</svg>
