<svg width="27" height="15" viewBox="0 0 27 15" fill="#0D354A" xmlns="http://www.w3.org/2000/svg">
<path d="M13.4917 14.9912C13.8569 14.9912 14.189 14.8418 14.438 14.5762L26.4243 2.0918C26.6567 1.85938 26.7896 1.57715 26.7896 1.22852C26.7896 0.53125 26.2583 0 25.5776 0C25.2456 0 24.9302 0.132812 24.6978 0.348633L13.5083 12.0029L2.30225 0.348633C2.06982 0.132812 1.771 0 1.43896 0C0.741699 0 0.210449 0.53125 0.210449 1.22852C0.210449 1.57715 0.359863 1.85938 0.575684 2.0918L12.5786 14.5762C12.8442 14.8418 13.1431 14.9912 13.4917 14.9912Z" />
</svg>
