<svg width="35" height="34" viewBox="0 0 35 34" fill="#0d354a" xmlns="http://www.w3.org/2000/svg">
<path d="M17.625 8.21484C12.875 8.21484 9.08984 12.0742 9.08984 16.75C9.08984 21.5 12.875 25.2852 17.625 25.2852C22.3008 25.2852 26.1602 21.5 26.1602 16.75C26.1602 12.0742 22.3008 8.21484 17.625 8.21484ZM17.625 22.3164C14.582 22.3164 12.0586 19.8672 12.0586 16.75C12.0586 13.707 14.5078 11.2578 17.625 11.2578C20.668 11.2578 23.1172 13.707 23.1172 16.75C23.1172 19.8672 20.668 22.3164 17.625 22.3164ZM28.4609 7.91797C28.4609 6.80469 27.5703 5.91406 26.457 5.91406C25.3438 5.91406 24.4531 6.80469 24.4531 7.91797C24.4531 9.03125 25.3438 9.92188 26.457 9.92188C27.5703 9.92188 28.4609 9.03125 28.4609 7.91797ZM34.1016 9.92188C33.9531 7.25 33.3594 4.875 31.4297 2.94531C29.5 1.01562 27.125 0.421875 24.4531 0.273438C21.707 0.125 13.4688 0.125 10.7227 0.273438C8.05078 0.421875 5.75 1.01562 3.74609 2.94531C1.81641 4.875 1.22266 7.25 1.07422 9.92188C0.925781 12.668 0.925781 20.9062 1.07422 23.6523C1.22266 26.3242 1.81641 28.625 3.74609 30.6289C5.75 32.5586 8.05078 33.1523 10.7227 33.3008C13.4688 33.4492 21.707 33.4492 24.4531 33.3008C27.125 33.1523 29.5 32.5586 31.4297 30.6289C33.3594 28.625 33.9531 26.3242 34.1016 23.6523C34.25 20.9062 34.25 12.668 34.1016 9.92188ZM30.5391 26.5469C30.0195 28.0312 28.832 29.1445 27.4219 29.7383C25.1953 30.6289 20 30.4062 17.625 30.4062C15.1758 30.4062 9.98047 30.6289 7.82812 29.7383C6.34375 29.1445 5.23047 28.0312 4.63672 26.5469C3.74609 24.3945 3.96875 19.1992 3.96875 16.75C3.96875 14.375 3.74609 9.17969 4.63672 6.95312C5.23047 5.54297 6.34375 4.42969 7.82812 3.83594C9.98047 2.94531 15.1758 3.16797 17.625 3.16797C20 3.16797 25.1953 2.94531 27.4219 3.83594C28.832 4.35547 29.9453 5.54297 30.5391 6.95312C31.4297 9.17969 31.207 14.375 31.207 16.75C31.207 19.1992 31.4297 24.3945 30.5391 26.5469Z"/>
</svg>
