<svg width="500" height="200" viewBox="0 0 500 200" fill="none" xmlns="http://www.w3.org/2000/svg">
<g clip-path="url(#clip0)">
<path d="M122.75 43.1812C126.731 43.1812 128.631 44.722 129.505 47.6509C129.583 47.9065 129.505 47.9841 129.274 48.0869L128.813 48.2398C128.558 48.29 128.453 48.2649 128.377 48.0344C127.606 45.4913 126.092 44.286 122.752 44.286C118.952 44.286 117.025 46.2378 117.025 49.4748V55.8187C117.025 59.0283 119.029 61.0326 122.752 61.0326C126.195 61.0326 127.658 59.6972 128.427 57.1541C128.53 56.9236 128.633 56.8711 128.864 56.9487L129.352 57.129C129.583 57.2066 129.635 57.3094 129.557 57.5399C128.683 60.4687 126.834 62.1375 122.752 62.1375C118.283 62.1375 115.845 59.7223 115.845 55.7936V49.5022C115.842 45.5963 118.205 43.1812 122.75 43.1812Z" fill="#10607B"/>
<path d="M139.058 43.1812C143.528 43.1812 145.941 45.5963 145.941 49.525V55.7913C145.941 59.72 143.526 62.1352 139.058 62.1352C134.538 62.1352 132.123 59.72 132.123 55.7913V49.525C132.125 45.5963 134.538 43.1812 139.058 43.1812ZM139.058 44.286C135.308 44.286 133.306 46.2378 133.306 49.525V55.7913C133.306 59.0785 135.31 61.0303 139.058 61.0303C142.756 61.0303 144.761 59.0785 144.761 55.7913V49.525C144.761 46.2378 142.756 44.286 139.058 44.286Z" fill="#10607B"/>
<path d="M150.794 43.8753V60.6721H160.142C160.373 60.6721 160.451 60.7497 160.451 60.9802V61.4414C160.451 61.697 160.373 61.7746 160.142 61.7746H149.948C149.692 61.7746 149.614 61.697 149.614 61.4414V43.8753C149.614 43.6196 149.692 43.542 149.948 43.542H150.486C150.717 43.542 150.794 43.6196 150.794 43.8753Z" fill="#10607B"/>
<path d="M174.063 43.8753V44.3387C174.063 44.5693 173.985 44.6469 173.73 44.6469H164.099V51.9929H172.625C172.855 51.9929 172.933 52.0705 172.933 52.3011V52.7645C172.933 53.0202 172.855 53.0978 172.625 53.0978H164.099V60.6744H174.088C174.319 60.6744 174.421 60.752 174.421 60.9825V61.4437C174.421 61.6993 174.319 61.777 174.088 61.777H163.249C162.994 61.777 162.916 61.6993 162.916 61.4437V43.8753C162.916 43.6196 162.994 43.542 163.249 43.542H173.727C173.985 43.542 174.063 43.6196 174.063 43.8753ZM170.878 38.8417L171.109 39.1248C171.262 39.3051 171.289 39.4079 171.056 39.5106L166.511 42.1312C166.281 42.2088 166.178 42.2088 166.101 42.1061L165.92 41.9007C165.765 41.7203 165.765 41.645 165.945 41.54L170.285 38.7915C170.518 38.6865 170.698 38.6363 170.878 38.8417Z" fill="#10607B"/>
<path d="M190.704 52.9399V55.9441C190.704 59.6947 188.289 62.1327 183.822 62.1327C179.302 62.1327 176.887 59.6924 176.887 55.7637V49.4975C176.887 45.5939 179.249 43.1787 183.794 43.1787C187.776 43.1787 189.675 44.7196 190.549 47.6484C190.627 47.9041 190.549 47.9817 190.319 48.0844L189.858 48.2374C189.627 48.315 189.497 48.2625 189.422 48.0319C188.65 45.4935 187.134 44.2859 183.794 44.2859C179.968 44.2859 178.067 46.2377 178.067 49.4747V55.766C178.067 59.0532 180.071 61.0301 183.82 61.0301C187.518 61.0301 189.547 59.0532 189.547 55.9441V53.7092H184.05C183.794 53.7092 183.717 53.6065 183.717 53.3759V52.9125C183.717 52.682 183.794 52.5793 184.05 52.5793H190.369C190.627 52.5815 190.704 52.6843 190.704 52.9399Z" fill="#10607B"/>
<path d="M194.478 43.542H195.017C195.248 43.542 195.325 43.6196 195.325 43.8753V61.4414C195.325 61.697 195.248 61.7746 195.017 61.7746H194.478C194.223 61.7746 194.145 61.697 194.145 61.4414V43.8753C194.145 43.6196 194.223 43.542 194.478 43.542Z" fill="#10607B"/>
<path d="M205.933 43.1812C210.403 43.1812 212.816 45.5963 212.816 49.525V55.7913C212.816 59.72 210.401 62.1352 205.933 62.1352C201.413 62.1352 198.998 59.72 198.998 55.7913V49.525C198.998 45.5963 201.413 43.1812 205.933 43.1812ZM205.933 44.286C202.183 44.286 200.181 46.2378 200.181 49.525V55.7913C200.181 59.0785 202.185 61.0303 205.933 61.0303C209.631 61.0303 211.636 59.0785 211.636 55.7913V49.525C211.633 46.2378 209.631 44.286 205.933 44.286Z" fill="#10607B"/>
<path d="M86.0086 184.477C85.1411 182.413 86.157 180.044 88.248 179.24C95.2722 176.535 102.399 174.188 109.578 172.09C118.059 169.616 126.615 167.491 135.21 165.614C152.404 161.87 169.746 159.094 187.136 156.894C189.312 156.629 191.485 156.348 193.661 156.099L200.189 155.36L206.723 154.68C208.9 154.456 211.081 154.26 213.261 154.05C221.981 153.241 230.708 152.559 239.44 151.988C248.171 151.413 256.912 150.972 265.651 150.623C274.391 150.278 283.135 150.027 291.878 149.883C309.364 149.612 326.855 149.699 344.329 150.21C361.804 150.721 379.265 151.616 396.69 153.002C414.112 154.396 431.502 156.257 448.776 158.944C457.41 160.298 466.018 161.838 474.538 163.788L476.136 164.151L476.935 164.333L477.731 164.53L480.913 165.315C481.973 165.582 483.025 165.877 484.082 166.155C484.609 166.299 485.139 166.434 485.664 166.584L487.237 167.043C491.433 168.262 495.512 169.824 499.559 171.472C495.491 169.904 491.314 168.634 487.109 167.495L485.531 167.068C485.004 166.929 484.475 166.803 483.945 166.671C482.886 166.413 481.831 166.139 480.77 165.893L477.581 165.169L476.784 164.989L475.983 164.822L474.382 164.489C465.849 162.706 457.234 161.329 448.598 160.14C431.32 157.784 413.936 156.252 396.535 155.189C379.131 154.134 361.697 153.57 344.265 153.385C326.834 153.203 309.4 153.445 291.983 154.043C283.274 154.349 274.572 154.762 265.877 155.271C257.181 155.782 248.493 156.383 239.819 157.118C231.144 157.848 222.478 158.69 213.831 159.656C211.669 159.907 209.508 160.142 207.35 160.405L200.876 161.204L194.412 162.06C192.257 162.347 190.106 162.667 187.956 162.971C170.755 165.477 153.643 168.55 136.787 172.552C128.364 174.558 120.006 176.8 111.774 179.373C104.796 181.555 97.9065 183.972 91.1791 186.709C89.1726 187.527 86.8852 186.568 86.0451 184.57L86.0086 184.477Z" fill="url(#paint0_linear)"/>
<path d="M235.525 181.87L235.554 199.343C235.554 199.598 235.479 199.676 235.223 199.676H234.687C234.456 199.676 234.381 199.601 234.379 199.345L234.365 191.042L223.558 191.061L223.572 199.363C223.572 199.619 223.497 199.696 223.266 199.696H222.73C222.474 199.696 222.396 199.621 222.396 199.365L222.367 181.893C222.367 181.637 222.442 181.56 222.698 181.56H223.234C223.465 181.56 223.54 181.635 223.542 181.891L223.556 189.963L234.363 189.944L234.349 181.872C234.349 181.617 234.424 181.539 234.655 181.539H235.191C235.447 181.539 235.525 181.614 235.525 181.87Z" fill="#074F67"/>
<path d="M241.579 181.528H242.115C242.346 181.528 242.421 181.604 242.423 181.859L242.453 199.332C242.453 199.587 242.378 199.665 242.147 199.665H241.611C241.355 199.665 241.277 199.59 241.277 199.334L241.248 181.862C241.248 181.606 241.323 181.528 241.579 181.528Z" fill="#074F67"/>
<path d="M261.368 190.844L261.373 193.832C261.38 197.562 258.983 199.993 254.538 200C250.041 200.007 247.637 197.585 247.631 193.677L247.619 187.442C247.612 183.559 249.959 181.153 254.481 181.147C258.442 181.14 260.334 182.669 261.206 185.58C261.284 185.835 261.206 185.913 260.978 186.016L260.519 186.169C260.289 186.246 260.161 186.196 260.085 185.965C259.314 183.438 257.805 182.24 254.484 182.245C250.678 182.251 248.79 184.196 248.795 187.415L248.806 193.674C248.813 196.943 250.808 198.907 254.538 198.902C258.216 198.895 260.232 196.925 260.227 193.834L260.222 191.611L254.755 191.62C254.499 191.62 254.422 191.517 254.422 191.289V190.83C254.422 190.6 254.497 190.497 254.753 190.497L261.037 190.485C261.291 190.485 261.368 190.588 261.368 190.844Z" fill="#074F67"/>
<path d="M266.64 181.484H267.176C267.407 181.484 267.482 181.56 267.484 181.815L267.514 199.288C267.514 199.544 267.439 199.621 267.208 199.621H266.672C266.416 199.621 266.338 199.546 266.338 199.29L266.309 181.818C266.309 181.562 266.384 181.484 266.64 181.484Z" fill="#074F67"/>
<path d="M284.294 181.786V182.245C284.294 182.475 284.219 182.551 283.963 182.551L274.382 182.566L274.396 189.874L282.877 189.86C283.107 189.86 283.183 189.935 283.183 190.166V190.625C283.183 190.88 283.107 190.958 282.877 190.958L274.396 190.972L274.41 198.507L284.347 198.489C284.577 198.489 284.68 198.564 284.68 198.795V199.254C284.68 199.509 284.577 199.587 284.349 199.587L273.568 199.605C273.312 199.605 273.234 199.53 273.234 199.274L273.205 181.802C273.205 181.546 273.28 181.468 273.536 181.468L283.959 181.45C284.217 181.455 284.292 181.53 284.294 181.786Z" fill="#074F67"/>
<path d="M302.687 181.754L302.716 199.226C302.716 199.482 302.641 199.56 302.41 199.56H301.874C301.696 199.56 301.618 199.535 301.516 199.356L292.425 186.447C291.581 185.249 290.889 183.87 290.35 183.13H290.3C290.302 184.101 290.458 185.735 290.46 187.344L290.48 199.249C290.48 199.505 290.405 199.582 290.175 199.582H289.663C289.408 199.582 289.33 199.507 289.33 199.251L289.3 181.779C289.3 181.523 289.376 181.446 289.631 181.446H290.143C290.348 181.446 290.449 181.548 290.501 181.624L299.335 194.202C300.283 195.553 301.077 196.982 301.691 197.85H301.742C301.739 196.727 301.559 195.015 301.554 193.252L301.534 181.731C301.534 181.5 301.609 181.425 301.865 181.423H302.376C302.609 181.423 302.687 181.498 302.687 181.754Z" fill="#074F67"/>
<path d="M314.77 181.044C319.214 181.037 321.62 183.434 321.627 187.342L321.639 193.576C321.645 197.485 319.249 199.891 314.804 199.897C310.307 199.904 307.903 197.507 307.896 193.599L307.885 187.365C307.876 183.457 310.273 181.051 314.77 181.044ZM314.772 182.142C311.042 182.149 309.054 184.094 309.058 187.363L309.07 193.597C309.074 196.866 311.072 198.804 314.802 198.799C318.479 198.793 320.47 196.848 320.463 193.579L320.452 187.344C320.447 184.073 318.45 182.135 314.772 182.142ZM317.112 176.467L317.342 176.748C317.523 176.926 317.523 177.028 317.292 177.131L312.775 179.745C312.569 179.823 312.469 179.823 312.366 179.72L312.188 179.517C312.035 179.339 312.06 179.261 312.213 179.158L316.525 176.417C316.753 176.314 316.934 176.261 317.112 176.467Z" fill="#074F67"/>
<path d="M339.664 186.927C339.67 190.376 337.502 192.449 334.027 192.453L327.999 192.465L328.01 199.183C328.01 199.439 327.935 199.516 327.704 199.516H327.168C326.912 199.516 326.834 199.441 326.834 199.185L326.805 181.713C326.805 181.457 326.88 181.38 327.136 181.38L334.007 181.368C337.456 181.361 339.657 183.427 339.664 186.927ZM338.435 186.929C338.431 184.119 336.691 182.462 333.906 182.466L327.98 182.478L327.996 191.367L333.922 191.355C336.707 191.351 338.442 189.714 338.435 186.929Z" fill="#074F67"/>
<path d="M350.484 180.98C354.929 180.974 357.335 183.371 357.342 187.279L357.353 193.513C357.36 197.421 354.963 199.827 350.518 199.834C346.021 199.841 343.617 197.444 343.611 193.536L343.599 187.302C343.592 183.396 345.989 180.99 350.484 180.98ZM350.486 182.081C346.756 182.088 344.768 184.033 344.772 187.302L344.784 193.536C344.788 196.805 346.786 198.743 350.516 198.736C354.194 198.729 356.184 196.784 356.177 193.515L356.166 187.281C356.161 184.012 354.164 182.074 350.486 182.081Z" fill="#074F67"/>
<path d="M363.695 181.646L363.724 198.354L373.022 198.338C373.253 198.338 373.328 198.413 373.33 198.644V199.103C373.33 199.358 373.255 199.436 373.024 199.436L362.882 199.454C362.626 199.454 362.549 199.379 362.549 199.123L362.519 181.651C362.519 181.395 362.594 181.317 362.85 181.317H363.386C363.617 181.315 363.692 181.393 363.695 181.646Z" fill="#074F67"/>
<path d="M377.615 181.29H378.151C378.382 181.29 378.457 181.365 378.459 181.621L378.489 199.094C378.489 199.349 378.414 199.427 378.183 199.427H377.647C377.391 199.427 377.313 199.351 377.313 199.096L377.284 181.623C377.284 181.368 377.359 181.292 377.615 181.29Z" fill="#074F67"/>
<path d="M389.928 180.911C393.353 180.904 395.295 182.153 396.628 184.858C396.756 185.089 396.681 185.217 396.475 185.292L395.964 185.522C395.761 185.6 395.683 185.6 395.555 185.369C394.403 183.098 392.791 182.027 389.928 182.032C386.632 182.039 384.719 183.472 384.724 185.924C384.728 188.94 387.566 189.419 390.453 189.72C393.572 190.072 396.815 190.604 396.822 194.537C396.829 197.859 394.533 199.753 390.088 199.76C386.511 199.767 384.441 198.34 383.208 195.302C383.105 195.046 383.13 194.943 383.386 194.843L383.87 194.663C384.1 194.585 384.176 194.61 384.304 194.866C385.406 197.443 387.223 198.642 390.084 198.637C393.763 198.63 395.651 197.299 395.647 194.592C395.642 191.576 392.983 191.2 390.198 190.871C387.004 190.494 383.53 189.962 383.521 186.004C383.521 182.89 385.892 180.918 389.928 180.911Z" fill="#074F67"/>
<path d="M116.409 94.325C116.409 87.3237 116.409 81.151 116.409 74.1497C116.409 72.4855 116.527 72.3714 118.212 72.3668C119.605 72.3623 120.999 72.3851 122.392 72.36C123.264 72.344 123.691 72.6453 123.689 73.6018C123.661 87.7049 123.718 100.982 123.613 115.085C123.577 119.803 122.221 124.202 119.146 127.923C116.114 131.592 112.129 133.356 107.444 133.717C100.664 134.24 95.2358 131.5 89.7275 127.793C86.5681 125.668 90.3461 120.132 93.4781 122.241C95.1263 123.351 96.7927 124.444 98.5642 125.316C101.765 126.891 105.219 127.197 108.704 126.492C112.72 125.681 115.416 122.463 116.048 117.753C116.288 115.975 116.381 114.165 116.393 112.37C116.434 106.358 116.409 100.342 116.409 94.325ZM192.547 85.1527C195.181 84.0775 196.729 81.9819 197.608 79.3704C197.71 79.0668 197.322 78.4345 196.989 78.1811C196.348 77.6926 195.581 77.3707 194.868 76.9758C193.647 76.2978 193.471 76.3434 192.796 77.5328C191.303 80.1671 190.326 80.5986 187.481 79.48C185.657 78.7632 183.97 77.7108 182.181 76.8982C180.288 76.0398 178.311 75.5376 176.254 76.3115C173.542 77.3342 171.999 79.4754 171.02 82.0687C170.91 82.3609 171.23 82.9795 171.531 83.2238C172.104 83.6872 172.814 83.9794 173.458 84.3583C175.058 85.2966 175.124 85.2829 176.022 83.71C177.142 81.7445 178.361 81.1647 180.382 81.7034C180.966 81.8587 181.525 82.1349 182.073 82.3997C183.6 83.1393 185.087 83.9702 186.643 84.6323C187.783 85.1162 189.013 85.3924 190.097 85.728C191.045 85.5134 191.839 85.4426 192.547 85.1527ZM201.155 129.302C201.16 130.343 200.845 130.925 199.824 131.251C192.394 133.619 184.842 134.598 177.126 133.055C173.043 132.238 169.548 130.329 167.228 126.665C163.277 120.424 165.61 111.907 172.175 108.545C175.232 106.979 178.494 106.301 181.882 106.152C185.557 105.992 189.214 106.207 192.832 106.928C193.193 106.999 193.563 107.015 194.069 107.074C194.106 104.367 194.19 101.792 193.337 99.2992C192.197 95.9732 189.707 94.4665 186.356 94.1036C181.242 93.5511 176.419 94.4528 171.926 96.9799C171.203 97.3862 170.687 97.3543 170.216 96.6192C169.538 95.5623 168.787 94.551 168.1 93.4986C167.459 92.5147 167.534 92.2591 168.532 91.6427C173.488 88.5769 178.946 87.5086 184.689 87.5793C187.68 87.6159 190.572 88.1409 193.266 89.4718C197.939 91.782 200.256 95.7335 200.899 100.765C201.084 102.207 201.123 103.678 201.128 105.136C201.146 113.195 201.121 121.248 201.155 129.302ZM193.008 112.925C189.559 112.663 186.114 112.204 182.662 112.181C180.708 112.167 178.674 112.642 176.811 113.29C174.289 114.172 172.833 116.121 172.54 118.863C172.234 121.737 173.136 124.083 175.688 125.519C176.996 126.257 178.473 126.825 179.943 127.122C184.509 128.037 188.997 127.32 193.444 126.184C194.01 126.04 194.099 125.716 194.094 125.223C194.081 123.353 194.088 121.483 194.09 119.614C194.09 118.262 194.058 116.909 194.076 115.56C194.083 115.11 194.094 114.66 194.113 114.21C194.154 113.32 193.834 112.987 193.008 112.925ZM163.838 110.832C163.838 110.836 163.836 110.841 163.836 110.846C163.836 113.697 163.907 116.578 163.583 119.39C162.88 125.492 159.567 129.877 153.84 132.139C147.774 134.534 141.57 134.516 135.577 131.934C129.596 129.354 126.476 124.513 126.175 118.061C125.951 113.245 126.012 108.405 126.154 103.584C126.378 96.0029 131.619 89.8781 139.15 88.2254C144.535 87.0452 149.845 87.2255 154.853 89.7366C160.476 92.5558 163.336 97.2903 163.736 103.497C163.891 105.885 163.877 110.636 163.838 110.832ZM156.743 110.8C156.743 110.677 156.794 106.106 156.705 103.764C156.517 98.8655 153.5 95.1719 148.797 94.3729C146.653 94.01 144.398 93.9712 142.227 94.1675C137.016 94.6377 133.343 98.6463 133.26 103.819C133.187 108.474 133.132 113.135 133.281 117.788C133.409 121.851 135.276 124.914 139.191 126.506C141.985 127.642 144.903 127.729 147.811 127.316C153.52 126.503 156.622 122.906 156.737 117.121C156.778 115.014 156.743 112.907 156.743 110.8ZM241.029 110.848C240.976 110.848 241.129 116.783 240.814 119.701C240.218 125.207 237.255 129.357 232.242 131.635C225.35 134.767 218.285 134.772 211.519 131.229C206.278 128.482 203.682 123.819 203.488 117.947C203.338 113.363 203.404 108.771 203.456 104.182C203.55 96.2151 208.682 89.9352 216.468 88.2162C221.463 87.1137 226.426 87.2073 231.158 89.2663C237.374 91.9692 240.661 96.8383 241.008 103.609C241.131 106.017 241.029 108.435 241.029 110.848ZM234.018 103.983C233.895 98.902 230.889 95.1947 226.115 94.3775C223.974 94.01 221.719 93.9803 219.545 94.1675C214.77 94.5807 211.359 97.7446 210.768 102.5C210.43 105.207 210.626 110.743 210.585 110.743C210.585 113.156 210.49 115.573 210.606 117.982C210.802 121.999 212.686 124.94 216.486 126.506C219.068 127.569 221.769 127.674 224.497 127.38C230.03 126.782 233.845 123.588 234.014 117.648C234.144 113.094 234.128 108.535 234.018 103.983Z" fill="url(#paint1_linear)"/>
<path d="M354.625 123.411C354.625 122.906 354.625 122.493 354.625 122.08C354.625 111.933 354.625 101.788 354.625 91.641C354.625 89.8444 354.933 89.5294 356.741 89.5248C359.789 89.5157 362.837 89.5134 365.884 89.5271C367.624 89.5362 367.968 89.8855 367.968 91.5907C367.971 104.473 367.971 117.354 367.968 130.236C367.968 131.871 367.69 132.256 366.144 132.845C358.764 135.658 351.165 136.783 343.323 135.576C335.171 134.32 329.905 128.94 328.649 120.715C328.394 119.046 328.261 117.341 328.252 115.651C328.211 107.652 328.234 99.6536 328.234 91.6547C328.234 89.906 328.59 89.5362 330.368 89.5271C333.45 89.5134 336.532 89.5134 339.614 89.5271C341.337 89.5362 341.718 89.9426 341.721 91.7049C341.723 99.6011 341.712 107.495 341.734 115.391C341.739 116.633 341.798 117.889 341.999 119.11C342.479 122.023 344.127 123.671 347.051 124.093C349.578 124.461 352.091 124.271 354.625 123.411ZM370.495 118.512C370.504 120.169 370.589 121.847 370.879 123.475C371.952 129.503 375.186 133.761 381.268 135.414C384.697 136.345 388.201 136.165 391.689 135.655C393.111 135.448 393.385 135.176 393.399 133.715C393.424 130.978 393.426 128.241 393.399 125.504C393.385 124.073 392.91 123.716 391.449 123.776C390.344 123.822 389.23 123.863 388.134 123.762C386.269 123.591 384.925 122.568 384.418 120.772C384.066 119.528 383.902 118.192 383.898 116.898C383.856 106.817 383.875 96.7362 383.875 86.6531C383.875 82.6696 383.882 78.6861 383.872 74.7004C383.868 72.8627 383.535 72.5431 381.681 72.5408C378.702 72.5386 375.723 72.5363 372.744 72.5408C370.797 72.5431 370.479 72.8696 370.479 74.8602C370.477 82.4824 370.479 90.1024 370.479 97.7246C370.479 104.655 370.456 111.583 370.495 118.512ZM292.524 102.041C290.214 109.878 284.948 114.569 276.992 116.181C274.94 116.596 272.805 116.692 270.703 116.759C267.729 116.852 264.747 116.784 261.768 116.784C261.396 116.784 261.024 116.784 260.517 116.784C260.517 118.188 260.517 119.397 260.517 120.607C260.517 124.694 260.526 128.78 260.513 132.866C260.506 134.587 260.141 134.93 258.431 134.93C255.107 134.932 251.781 134.934 248.457 134.927C246.999 134.925 246.62 134.557 246.54 133.106C246.521 132.795 246.533 132.482 246.533 132.17C246.533 113.193 246.533 94.2137 246.533 75.2368C246.533 74.8898 246.519 74.5428 246.547 74.1981C246.645 72.9221 247.019 72.5431 248.295 72.5431C256.573 72.5454 264.852 72.4084 273.123 72.6276C279.186 72.7874 284.555 74.9127 288.602 79.6974C291.107 82.6582 292.522 86.1326 293.145 89.906C293.816 93.9808 293.698 98.0625 292.524 102.041ZM278.586 90.9995C277.93 88.8423 276.606 87.1462 274.431 86.4134C272.977 85.9226 271.418 85.5802 269.888 85.5048C266.989 85.361 264.078 85.4546 261.17 85.4569C260.974 85.4569 260.777 85.5185 260.574 85.5528C260.574 91.609 260.574 97.615 260.574 103.776C264.866 103.575 269.142 104.269 273.317 103.226C276.127 102.523 277.99 100.66 278.702 97.7589C279.261 95.4898 279.263 93.2252 278.586 90.9995ZM434.77 121.041C433.991 127.529 430.391 132.062 424.353 134.386C417.605 136.982 410.693 136.927 403.977 134.252C398.402 132.03 395.012 127.773 393.99 121.81C393.682 120.014 393.622 118.158 393.62 116.329C393.615 112.35 393.492 108.351 393.83 104.395C394.503 96.5467 399.863 90.7621 407.618 89.1459C412.606 88.1072 417.587 88.1209 422.511 89.5294C429.973 91.6638 434.852 98.0259 434.991 105.79C435.032 108.004 434.998 110.221 434.998 112.437C434.996 112.919 435.112 118.199 434.77 121.041ZM421.468 112.451C421.461 112.451 421.456 112.451 421.449 112.451C421.449 110.305 421.559 108.155 421.42 106.018C421.262 103.585 420.064 101.63 417.676 100.914C416.133 100.45 414.38 100.288 412.782 100.482C409.271 100.911 407.419 102.948 407.301 106.525C407.164 110.67 407.228 114.827 407.346 118.975C407.417 121.431 409.068 123.511 411.344 123.936C413.015 124.248 414.797 124.347 416.478 124.127C419.591 123.723 421.301 121.712 421.445 118.576C421.543 116.537 421.468 114.492 421.468 112.451ZM325.711 130.928C325.711 132.985 325.572 133.249 323.609 133.77C315.425 135.939 307.141 136.795 298.736 135.32C296.097 134.857 293.606 133.884 291.367 132.373C287.299 129.627 285.89 125.588 285.92 120.9C285.959 114.638 289.349 110.449 295.914 108.563C300.03 107.381 304.249 107.315 308.483 107.591C309.72 107.671 310.956 107.817 312.585 107.97C312.254 106.221 312.131 104.657 311.645 103.217C310.844 100.845 308.759 100.16 306.522 100.03C302.662 99.8042 298.923 100.359 295.355 101.825C296.469 97.9141 296.574 93.9055 295.914 89.9083C295.91 89.8832 295.905 89.8604 295.9 89.8376C298.005 89.1984 300.178 88.7783 302.418 88.5592C306.41 88.1688 310.376 88.178 314.24 89.3879C320.226 91.262 323.888 95.3163 325.043 101.475C325.474 103.772 325.657 106.144 325.682 108.483C325.762 115.964 325.714 123.447 325.711 130.928ZM312.291 116.845C311.371 116.731 310.49 116.569 309.602 116.519C307.187 116.384 304.76 116.158 302.388 116.868C300.656 117.386 299.592 118.685 299.462 120.374C299.329 122.093 300.11 123.609 301.808 124.255C303.137 124.76 304.598 125.141 306.006 125.164C308.111 125.198 310.22 124.872 312.291 124.7C312.291 121.909 312.291 119.425 312.291 116.845Z" fill="url(#paint2_linear)"/>
<path d="M62.4206 126.633C62.4229 126.644 62.4229 126.653 62.4229 126.665C62.416 126.667 62.416 126.665 62.416 126.66C62.4183 126.651 62.4206 126.642 62.4206 126.633Z" fill="#8BC440"/>
<path d="M69.8833 85.8646C69.9495 84.7575 70.3033 85.6272 69.8833 85.8646V85.8646Z" fill="url(#paint3_linear)"/>
<path d="M50.5708 178.51C59.0971 133.826 17.258 138.515 5.16838 117.952C-9.27256 93.389 10.5398 73.3324 16.1486 70.7026C11.373 87.0862 14.7652 100.253 40.958 112.126C61.0397 121.23 68.7647 143.35 62.2268 161.676C60.2042 167.342 56.2071 173.506 50.5708 178.51Z" fill="url(#paint4_linear)"/>
<path d="M62.4165 126.661C65.3841 111.571 70.4199 86.7256 38.5955 71.0428C25.1407 64.4113 14.9914 48.2811 18.8242 28.0487C21.2874 15.0368 29.9734 5.10661 33.7126 0C31.932 5.66817 23.5428 22.5038 60.8687 49.1759C93.8848 72.7686 81.6398 98.7262 76.9031 108.574C71.954 118.87 62.3662 126.91 62.4165 126.661Z" fill="#8BC440"/>
<path d="M16.1485 70.7002C15.0962 71.328 14.2036 71.9283 13.4092 72.531C14.4867 71.6544 15.4317 71.0358 16.1485 70.7002Z" fill="url(#paint5_linear)"/>
<path d="M0.00705768 99.418C-0.00892186 99.0299 0.00934048 98.6076 0.0618447 98.1533C0.0321684 98.5756 0.0161889 99.0025 0.00705768 99.434V99.418V99.418Z" fill="url(#paint6_linear)"/>
<path d="M13.3821 72.5537C11.9828 73.6928 10.3643 75.268 8.74805 77.2129C10.2593 75.357 11.5627 73.9417 13.3821 72.5537Z" fill="url(#paint7_linear)"/>
<path d="M62.4209 126.633C62.1469 120.031 62.4551 104.403 47.4412 94.2423C33.5709 84.8554 23.2733 96.1301 27.5284 104.59C13.7129 94.6806 12.3592 83.7026 16.1487 70.6998C16.1532 70.6975 16.1555 70.6953 16.1601 70.693C19.4336 68.7389 25.5583 67.0245 32.4478 67.1615C34.3813 68.6818 36.445 69.9807 38.5931 71.04C70.4015 86.7136 65.3908 111.539 62.4209 126.633Z" fill="url(#paint8_linear)"/>
</g>
<defs>
<linearGradient id="paint0_linear" x1="85.6979" y1="168.363" x2="499.561" y2="168.363" gradientUnits="userSpaceOnUse">
<stop offset="0.2574" stop-color="#6D9D31"/>
<stop offset="0.9191" stop-color="#8DC63F"/>
</linearGradient>
<linearGradient id="paint1_linear" x1="161.459" y1="146.415" x2="171.24" y2="73.8721" gradientUnits="userSpaceOnUse">
<stop offset="0.0809" stop-color="#074F67"/>
<stop offset="0.9066" stop-color="#0A6E98"/>
</linearGradient>
<linearGradient id="paint2_linear" x1="447.495" y1="104.048" x2="234.489" y2="104.733" gradientUnits="userSpaceOnUse">
<stop offset="0.1712" stop-color="#045375"/>
<stop offset="0.5503" stop-color="#00789B"/>
</linearGradient>
<linearGradient id="paint3_linear" x1="69.8834" y1="85.5911" x2="70.0857" y2="85.5911" gradientUnits="userSpaceOnUse">
<stop offset="0.1723" stop-color="#10607B"/>
<stop offset="0.919" stop-color="#00789B"/>
</linearGradient>
<linearGradient id="paint4_linear" x1="34.2379" y1="167.414" x2="30.0358" y2="76.124" gradientUnits="userSpaceOnUse">
<stop offset="0.1723" stop-color="#10607B"/>
<stop offset="0.919" stop-color="#00789B"/>
</linearGradient>
<linearGradient id="paint5_linear" x1="14.8612" y1="72.1589" x2="14.6857" y2="71.0017" gradientUnits="userSpaceOnUse">
<stop offset="0.1723" stop-color="#10607B"/>
<stop offset="0.919" stop-color="#00789B"/>
</linearGradient>
<linearGradient id="paint6_linear" x1="0.00160085" y1="98.7947" x2="0.0620273" y2="98.7947" gradientUnits="userSpaceOnUse">
<stop offset="0.1723" stop-color="#10607B"/>
<stop offset="0.919" stop-color="#00789B"/>
</linearGradient>
<linearGradient id="paint7_linear" x1="8.74818" y1="74.8844" x2="13.3822" y2="74.8844" gradientUnits="userSpaceOnUse">
<stop offset="0.1723" stop-color="#10607B"/>
<stop offset="0.919" stop-color="#00789B"/>
</linearGradient>
<linearGradient id="paint8_linear" x1="14.3243" y1="96.8943" x2="64.6319" y2="96.8943" gradientUnits="userSpaceOnUse">
<stop offset="0.1723" stop-color="#10607B"/>
<stop offset="0.919" stop-color="#00789B"/>
</linearGradient>
<clipPath id="clip0">
<rect width="499.562" height="200" fill="white"/>
</clipPath>
</defs>
</svg>
