<svg width="200" height="144" viewBox="0 0 200 144" fill="#0D354A" xmlns="http://www.w3.org/2000/svg">
<g clip-path="url(#clip0)">
<path d="M70.1184 44.8629C69.7167 45.9292 69.5241 46.8437 69.5502 47.5313C69.5631 47.7406 69.6179 47.9451 69.7114 48.1326C69.805 48.3201 69.9352 48.4868 70.0944 48.6227C69.9743 47.3719 69.9823 46.112 70.1184 44.8629Z" />
<path d="M86.265 35.885C84.5321 34.9699 82.9593 33.7781 81.6082 32.3565H81.6027C79.553 36.8137 79.4028 41.2557 82.5824 46.3045C83.7461 43.6142 87.5408 41.9149 92.1704 45.056C96.8425 48.2276 98.4057 52.5124 98.9598 55.9885C99.2559 49.2655 97.1538 41.5908 86.265 35.885Z" />
<path d="M93.6615 85.347C97.7273 63.9819 77.7774 66.2236 72.0124 56.3923C65.1262 44.6489 74.5738 35.0599 77.2473 33.8004C74.9711 41.6333 76.5876 47.9285 89.0787 53.606C98.658 57.9573 102.337 68.533 99.2197 77.2958C98.2563 80.0057 96.3492 82.9525 93.6615 85.347Z" />
<path d="M99.3098 60.5561C100.725 53.3419 103.126 41.4632 87.9508 33.9653C81.5349 30.8003 76.6951 23.0819 78.5228 13.4089C79.6974 7.18902 83.8404 2.44145 85.6224 0C84.7733 2.70993 80.7729 10.759 98.5762 23.5108C114.32 34.7904 108.482 47.2007 106.223 51.9089C103.858 56.8311 99.287 60.675 99.3098 60.5561Z" />
<path d="M177.273 108.485C177.261 108.34 177.263 108.179 177.266 108.01C177.275 107.42 177.291 106.39 176.266 106.02C176.259 104.251 176.259 102.46 176.259 100.724V99.4458V98.9121C176.25 94.1984 176.245 89.1638 176.267 84.211C176.589 84.0944 176.861 83.8696 177.037 83.5748C177.246 83.2201 177.32 82.7628 177.27 82.1352C177.258 81.9901 177.261 81.8296 177.264 81.6594C177.273 81.1399 177.282 80.4938 176.822 80.0223C176.495 79.6949 176.017 79.5311 175.356 79.5311H174.714C174.65 79.5311 174.583 79.5246 174.513 79.5246C174.443 79.5246 174.34 79.5246 174.246 79.5344H173.911H172.8H172.768C172.029 79.5344 171.504 79.7145 171.163 80.0801C170.715 80.5669 170.705 81.2359 170.749 81.7641C170.76 81.9093 170.758 82.0697 170.754 82.24C170.746 82.8293 170.729 83.8585 171.755 84.2285C171.761 86.0293 171.761 87.8509 171.76 89.6178V89.6429L171.768 93.4104C171.768 96.8931 171.776 101.443 171.757 106.04C171.434 106.156 171.162 106.381 170.986 106.676C170.776 107.031 170.702 107.489 170.753 108.117C170.764 108.261 170.762 108.423 170.759 108.593C170.751 109.112 170.74 109.758 171.201 110.23C171.527 110.557 172.005 110.721 172.667 110.721H173.374C173.42 110.721 173.468 110.721 173.516 110.721C173.564 110.721 173.642 110.721 173.709 110.721H174.101H175.223H175.255C175.994 110.721 176.519 110.541 176.86 110.175C177.306 109.685 177.315 109.017 177.273 108.485Z" />
<path d="M15.7571 90.3109C15.7571 86.9636 15.7571 84.0114 15.7571 80.6641C15.7571 79.8696 15.8137 79.815 16.6171 79.8128C17.2811 79.8128 17.9462 79.8205 18.6102 79.8128C19.0271 79.8052 19.2296 79.9482 19.2285 80.4055C19.2155 87.1492 19.2438 93.4967 19.1926 100.239C19.1752 102.494 18.5275 104.598 17.0623 106.376C15.6167 108.13 13.715 108.974 11.4824 109.146C8.24936 109.396 5.66078 108.086 3.0341 106.314C1.52754 105.298 3.32801 102.651 4.82151 103.66C5.59625 104.204 6.4065 104.695 7.2468 105.13C8.77078 105.884 10.4199 106.029 12.0822 105.693C13.9969 105.306 15.2825 103.767 15.584 101.515C15.6931 100.662 15.7483 99.8022 15.7495 98.9417C15.7691 96.0626 15.7571 93.1868 15.7571 90.3109ZM52.0636 85.9246C53.3198 85.4106 54.0579 84.4087 54.4759 83.1601C54.5249 83.015 54.3398 82.7127 54.1809 82.5915C53.875 82.3591 53.5092 82.2041 53.1696 82.0153C52.5872 81.6879 52.5034 81.714 52.1812 82.2827C51.4693 83.541 51.0034 83.7484 49.6471 83.2136C48.7762 82.8709 47.9729 82.3667 47.1194 81.9793C46.217 81.5689 45.2743 81.3244 44.2892 81.6988C42.9982 82.1877 42.2645 83.2114 41.8008 84.4513C41.7485 84.5899 41.8998 84.8878 42.0446 85.0035C42.3178 85.2218 42.6564 85.3648 42.9633 85.5492C43.7253 85.9978 43.758 85.9858 44.1858 85.2392C44.7203 84.2996 45.3016 84.0223 46.2649 84.2799C46.5436 84.3629 46.8137 84.4726 47.0715 84.6073C47.7998 84.9609 48.5084 85.3582 49.2486 85.6747C49.7929 85.9061 50.3775 86.0381 50.8945 86.1986C51.3463 86.0982 51.7262 86.0632 52.0636 85.9246ZM56.1697 107.032C56.1697 107.531 56.0216 107.809 55.535 107.964C51.9918 109.096 48.3909 109.565 44.7116 108.826C42.7641 108.436 41.0976 107.523 39.9916 105.771C38.1073 102.787 39.2198 98.7147 42.3505 97.1071C43.8081 96.3594 45.3636 96.0342 46.979 95.9633C48.7293 95.876 50.4837 96.001 52.2041 96.3354C52.375 96.3693 52.5524 96.3769 52.793 96.4053C52.8104 95.1109 52.8507 93.8787 52.4436 92.688C51.8993 91.0978 50.7128 90.3764 49.1148 90.204C46.6764 89.9399 44.3774 90.371 42.2351 91.5791C41.89 91.7745 41.644 91.7581 41.4187 91.4067C41.0921 90.9014 40.7372 90.4179 40.4096 89.9148C40.1037 89.4455 40.1407 89.3232 40.6153 89.0286C42.9786 87.5628 45.5813 87.051 48.3212 87.0848C49.7472 87.1023 51.1264 87.3544 52.4098 87.9906C54.6392 89.094 55.743 90.9843 56.051 93.3898C56.1303 94.0832 56.1667 94.7808 56.1599 95.4787C56.1697 99.3313 56.1512 103.182 56.1697 107.032ZM52.2824 99.208C50.6376 99.0825 48.995 98.8631 47.3502 98.8522C46.4184 98.8467 45.4474 99.0705 44.5602 99.3837C43.3574 99.7984 42.6629 100.736 42.5236 102.046C42.3777 103.42 42.8077 104.542 44.0247 105.228C44.6578 105.587 45.3427 105.844 46.0548 105.992C48.2319 106.429 50.372 106.087 52.4914 105.544C52.7614 105.475 52.8039 105.325 52.8017 105.085C52.7952 104.191 52.8017 103.296 52.8017 102.402C52.8017 101.756 52.7864 101.11 52.7952 100.464C52.7952 100.246 52.801 100.031 52.8126 99.8192C52.83 99.3924 52.6765 99.232 52.2824 99.208ZM38.3729 98.2072C38.3729 98.2072 38.3729 98.2072 38.3729 98.2137C38.3729 99.5769 38.4067 100.954 38.2521 102.3C37.9179 105.217 36.3384 107.313 33.6072 108.395C30.7149 109.54 27.7552 109.531 24.8988 108.296C22.0424 107.061 20.5587 104.748 20.415 101.664C20.3062 99.3608 20.3378 97.0481 20.4063 94.742C20.5152 91.1186 23.0112 88.1936 26.6035 87.4002C29.1703 86.836 31.7033 86.9222 34.0905 88.1227C36.7727 89.4695 38.1356 91.7341 38.3261 94.7005C38.3979 95.8367 38.3925 98.1079 38.3729 98.2017V98.2072ZM34.9897 98.1919C34.9897 98.133 35.0147 95.948 34.9712 94.8282C34.8819 92.485 33.4472 90.7202 31.2015 90.3382C30.1656 90.1724 29.1129 90.1394 28.0687 90.24C25.5835 90.4648 23.8309 92.3813 23.7928 94.8544C23.758 97.0798 23.7319 99.3084 23.8015 101.533C23.8636 103.475 24.754 104.94 26.6198 105.702C27.9522 106.247 29.3412 106.287 30.7302 106.088C33.4516 105.7 34.932 103.98 34.9864 101.214C35.006 100.201 34.9897 99.1938 34.9897 98.1864V98.1919ZM75.1813 98.2159C75.1562 98.2159 75.2303 101.054 75.0789 102.448C74.7948 105.081 73.3819 107.065 70.9925 108.154C67.7062 109.652 64.3371 109.654 61.1106 107.96C58.6069 106.65 57.3736 104.417 57.2811 101.61C57.2092 99.4186 57.2408 97.2227 57.2658 95.0301C57.3105 91.2201 59.7586 88.2177 63.4706 87.3969C65.8524 86.8698 68.2189 86.9134 70.4754 87.8979C73.4385 89.1901 75.0071 91.518 75.1726 94.7551C75.2313 95.9 75.1813 97.0568 75.1813 98.2105V98.2159ZM71.8383 94.933C71.7795 92.5036 70.347 90.7322 68.0708 90.3404C67.035 90.1739 65.9823 90.1401 64.938 90.24C62.6607 90.4365 61.0344 91.9502 60.7525 94.2225C60.5925 95.518 60.685 98.1635 60.6654 98.1635C60.6654 99.3171 60.6197 100.473 60.6763 101.624C60.7688 103.544 61.6669 104.95 63.4793 105.698C64.7116 106.207 65.9982 106.258 67.299 106.117C69.9377 105.831 71.7621 104.304 71.8372 101.465C71.8982 99.2833 71.8906 97.1038 71.8383 94.9275V94.933Z" />
<path d="M167.677 98.9689C167.677 97.9091 167.693 96.8494 167.677 95.7896C167.609 92.0789 165.282 89.0361 161.726 88.0167C159.378 87.3433 157.003 87.3368 154.624 87.8334C150.923 88.6061 148.37 91.3717 148.049 95.1239C147.887 97.0153 147.947 98.9274 147.949 100.83C147.934 101.706 147.993 102.582 148.125 103.449C148.613 106.3 150.228 108.335 152.888 109.397C156.09 110.676 159.386 110.707 162.604 109.462C165.483 108.35 167.2 106.187 167.571 103.081C167.73 101.724 167.675 99.2002 167.677 98.9689ZM161.215 101.903C161.147 103.402 160.33 104.364 158.845 104.558C158.029 104.654 157.204 104.622 156.397 104.465C155.309 104.262 154.525 103.265 154.491 102.094C154.435 100.11 154.404 98.123 154.469 96.1411C154.525 94.4319 155.408 93.4573 157.082 93.2521C157.866 93.1631 158.659 93.2332 159.415 93.4584C160.553 93.8011 161.125 94.7353 161.2 95.8988C161.265 96.9203 161.213 97.9495 161.213 98.9754H161.222C161.224 99.9511 161.26 100.929 161.215 101.903ZM147.839 105.217C147.852 106.527 147.852 107.836 147.839 109.146C147.833 109.845 147.702 109.974 147.024 110.074C145.36 110.317 143.69 110.401 142.054 109.965C139.155 109.173 137.612 107.138 137.1 104.256C136.973 103.471 136.911 102.678 136.918 101.883C136.898 98.5705 136.909 95.2581 136.909 91.9512V81.0045C136.909 80.0528 137.06 79.8968 137.989 79.8957C139.41 79.8957 140.831 79.8957 142.252 79.8957C143.134 79.8957 143.294 80.0485 143.295 80.9281C143.295 82.8326 143.295 84.7371 143.295 86.6416C143.295 91.4623 143.287 96.2818 143.306 101.101C143.305 101.728 143.389 102.352 143.555 102.957C143.796 103.816 144.436 104.306 145.327 104.387C145.853 104.424 146.381 104.426 146.907 104.393C147.608 104.361 147.834 104.533 147.84 105.217H147.839ZM92.3305 100.76C91.3508 100.958 90.3341 101.003 89.3315 101.036C87.9164 101.081 86.4915 101.047 85.0709 101.047H84.4722V102.875C84.4722 104.829 84.4722 106.783 84.4722 108.737C84.4722 109.559 84.2948 109.719 83.4794 109.719C81.8945 109.719 80.3092 109.719 78.7235 109.719C78.028 109.719 77.8473 109.543 77.8081 108.846C77.8005 108.696 77.8081 108.548 77.8081 108.398C77.8081 99.3261 77.8081 90.253 77.8081 81.1791C77.8081 81.0133 77.8015 80.8517 77.8081 80.6826C77.8549 80.0725 78.0334 79.8913 78.6419 79.8913C82.589 79.8913 86.5383 79.8269 90.4821 79.9317C91.1355 79.9472 91.7865 80.017 92.4284 80.1401C92.4875 82.4566 92.3703 84.7741 92.0779 87.0727C91.793 86.8272 91.4632 86.6397 91.1069 86.5204C90.4079 86.2772 89.6792 86.1304 88.9407 86.0839C87.5582 86.0162 86.1703 86.0599 84.7835 86.0609C84.6878 86.0691 84.5928 86.0844 84.4994 86.1068V94.8194C86.5459 94.7233 88.5848 95.0551 90.5757 94.5564C91.9157 94.2202 92.804 93.3285 93.1436 91.937C93.4194 90.8749 93.4002 89.7574 93.0881 88.7054C93.0035 88.4253 92.8896 88.155 92.7485 87.8989C94.5981 86.5391 96.3177 85.01 97.8853 83.3314C99.0664 84.7404 99.7359 86.3873 100.03 88.1848C100.35 90.1308 100.293 92.0822 99.7337 93.9845C98.6354 97.7465 96.1197 99.9882 92.3305 100.76ZM115.245 93.728C114.7 90.7812 112.949 88.8462 110.093 87.9501C108.251 87.3717 106.36 87.3663 104.456 87.5529C103.401 87.6535 102.359 87.8586 101.345 88.1652L101.351 88.199C101.666 90.11 101.616 92.0254 101.085 93.8961C102.771 93.2082 104.592 92.9148 106.409 93.0382C107.476 93.1004 108.469 93.4268 108.851 94.5607C109.083 95.2505 109.142 95.9981 109.3 96.833C108.523 96.761 107.935 96.6911 107.341 96.6518C105.321 96.5198 103.313 96.5525 101.347 97.1179C98.2163 98.0193 96.6009 100.022 96.5813 103.011C96.5671 105.253 97.2344 107.184 99.1786 108.497C100.237 109.21 101.435 109.69 102.692 109.906C106.7 110.611 110.651 110.2 114.558 109.165C115.495 108.916 115.561 108.789 115.561 107.805C115.561 104.228 115.585 100.652 115.547 97.0753C115.543 95.9528 115.442 94.8329 115.245 93.728ZM109.164 104.834C108.175 104.915 107.17 105.072 106.166 105.052C105.479 105.022 104.803 104.874 104.165 104.616C103.355 104.307 102.983 103.582 103.046 102.76C103.109 101.939 103.614 101.332 104.441 101.084C105.572 100.745 106.727 100.853 107.88 100.917C108.304 100.941 108.724 101.017 109.164 101.072V104.834ZM135.713 89.0088C135.713 95.1672 135.713 101.326 135.713 107.485C135.713 108.266 135.58 108.451 134.842 108.732C131.324 110.077 127.699 110.615 123.956 110.042C120.069 109.441 117.558 106.868 116.959 102.937C116.837 102.136 116.774 101.327 116.77 100.516C116.751 96.6966 116.761 92.868 116.762 89.0437C116.762 88.2077 116.932 88.0309 117.779 88.0265C119.248 88.02 120.718 88.02 122.188 88.0265C123.01 88.0265 123.192 88.2252 123.192 89.0677C123.192 92.8429 123.192 96.6169 123.199 100.392C123.193 100.987 123.235 101.582 123.325 102.17C123.553 103.563 124.339 104.353 125.734 104.552C126.946 104.735 128.185 104.623 129.345 104.225V89.0274C129.345 88.1684 129.492 88.0189 130.355 88.0156C131.808 88.0156 133.261 88.0102 134.709 88.0156C135.548 88.0211 135.713 88.1848 135.713 89.0033V89.0088Z" />
<path d="M18.7808 65.858C20.6793 65.858 21.5849 66.5946 22.0019 67.9949C22.0378 68.1182 22.0019 68.1542 21.893 68.2034L21.6753 68.2776C21.5523 68.3016 21.5033 68.2896 21.4674 68.1794C21.0995 66.9635 20.3788 66.3862 18.7852 66.3862C16.9727 66.3862 16.054 67.3193 16.054 68.8669V71.8999C16.054 73.4344 17.0098 74.3916 18.7852 74.3916C20.4256 74.3916 21.1245 73.7531 21.4913 72.5362C21.5403 72.4271 21.5893 72.4009 21.6992 72.438L21.9322 72.5231C22.041 72.5602 22.0672 72.6093 22.0302 72.7196C21.6143 74.1198 20.7326 74.9176 18.7852 74.9176C16.6538 74.9176 15.4912 73.764 15.4912 71.8846V68.8789C15.4869 67.0116 16.6135 65.858 18.7808 65.858Z" />
<path d="M26.5609 65.858C28.6912 65.858 29.8429 67.0127 29.8429 68.8909V71.8868C29.8429 73.7662 28.6912 74.9198 26.5609 74.9198C24.4045 74.9198 23.2539 73.7662 23.2539 71.8868V68.8909C23.2506 67.0116 24.4013 65.858 26.5609 65.858ZM26.5609 66.3862C24.7724 66.3862 23.8167 67.3193 23.8167 68.8964V71.8923C23.8167 73.4639 24.7724 74.4025 26.5609 74.4025C28.3244 74.4025 29.2823 73.4693 29.2823 71.8923V68.8909C29.2758 67.3193 28.3211 66.3862 26.5609 66.3862Z" />
<path d="M32.1537 66.1899V74.2204H36.6113C36.7202 74.2204 36.7583 74.2575 36.7583 74.3677V74.586C36.7583 74.7093 36.7213 74.7464 36.6113 74.7464H31.7488C31.6269 74.7464 31.5898 74.7093 31.5898 74.586V66.1899C31.5898 66.0677 31.6269 66.0305 31.7488 66.0305H32.0035C32.1123 66.0295 32.1537 66.0677 32.1537 66.1899Z" />
<path d="M43.2485 66.1897V66.408C43.2485 66.5171 43.2115 66.5553 43.0896 66.5553H38.497V70.0674H42.5627C42.6716 70.0674 42.7097 70.1045 42.7097 70.2148V70.433C42.7097 70.5553 42.6727 70.5924 42.5627 70.5924H38.497V74.2147H43.2605C43.3693 74.2147 43.4205 74.2518 43.4205 74.3621V74.5803C43.4205 74.7037 43.3715 74.7408 43.2605 74.7408H38.0931C37.9701 74.7408 37.9331 74.7037 37.9331 74.5803V66.1897C37.9331 66.0675 37.9701 66.0304 38.0931 66.0304H43.0896C43.2159 66.0293 43.2485 66.0675 43.2485 66.1897ZM41.73 63.7832L41.8388 63.9185C41.9129 64.0047 41.9248 64.0538 41.8149 64.103L39.6476 65.3548C39.5387 65.3919 39.4876 65.3919 39.4516 65.3428L39.3656 65.2446C39.2916 65.1583 39.2916 65.1212 39.3776 65.0721L41.4459 63.7624C41.5591 63.7101 41.644 63.685 41.73 63.7832Z" />
<path d="M51.1841 70.5248V71.961C51.1841 73.7531 50.0335 74.9198 47.9021 74.9198C45.7468 74.9198 44.5962 73.7531 44.5962 71.8748V68.8789C44.5962 67.0127 45.7228 65.858 47.8902 65.858C49.7886 65.858 50.6943 66.5946 51.1112 67.9949C51.1471 68.1182 51.1112 68.1543 51.0023 68.2034L50.7846 68.2776C50.6758 68.3147 50.6126 68.2896 50.5767 68.1794C50.2088 66.9635 49.4882 66.3862 47.8945 66.3862C46.0701 66.3862 45.1633 67.3193 45.1633 68.8669V71.8748C45.1633 73.4464 46.1191 74.3916 47.9065 74.3916C49.6699 74.3916 50.6377 73.4464 50.6377 71.961V70.8926H48.0121C47.8902 70.8926 47.8531 70.8434 47.8531 70.7332V70.5149C47.8531 70.4058 47.8902 70.3556 48.0121 70.3556H51.0252C51.1471 70.3523 51.1841 70.4014 51.1841 70.5248Z" />
<path d="M52.9847 66.0294H53.2416C53.3505 66.0294 53.3886 66.0665 53.3886 66.1888V74.587C53.3886 74.7104 53.3516 74.7475 53.2416 74.7475H52.9847C52.8617 74.7475 52.8247 74.7104 52.8247 74.587V66.1899C52.8247 66.0676 52.8617 66.0294 52.9847 66.0294Z" />
<path d="M58.4456 65.858C60.577 65.858 61.7276 67.0127 61.7276 68.8909V71.8868C61.7276 73.7662 60.577 74.9198 58.4456 74.9198C56.2902 74.9198 55.1396 73.7662 55.1396 71.8868V68.8909C55.1396 67.0116 56.2902 65.858 58.4456 65.858ZM58.4456 66.3862C56.6582 66.3862 55.7024 67.3193 55.7024 68.8964V71.8923C55.7024 73.4639 56.6582 74.4025 58.4456 74.4025C60.209 74.4025 61.167 73.4693 61.167 71.8923V68.8909C61.1648 67.3193 60.209 66.3862 58.4456 66.3862Z" />
<path d="M0.150424 133.635C0.0512055 133.397 0.000554847 133.142 0.00147722 132.885C0.00239959 132.628 0.0548761 132.373 0.155793 132.136C0.256711 131.9 0.404012 131.686 0.588959 131.507C0.773906 131.329 0.992729 131.189 1.23245 131.097C4.62656 129.788 8.07074 128.649 11.54 127.632C15.6384 126.432 19.7727 125.405 23.9255 124.495C32.2345 122.681 40.6163 121.33 49.02 120.27C50.0704 120.142 51.1209 120.005 52.1768 119.884L55.3336 119.526L58.4904 119.199C59.543 119.09 60.5967 118.996 61.6472 118.893C65.8614 118.502 70.0788 118.169 74.2995 117.895C78.5202 117.62 82.7423 117.402 86.9659 117.24C91.1895 117.072 95.4142 116.952 99.6399 116.881C108.091 116.75 116.54 116.803 124.987 117.039C133.432 117.287 141.87 117.72 150.29 118.391C158.71 119.062 167.114 119.968 175.461 121.27C179.633 121.925 183.793 122.673 187.911 123.617L188.683 123.794L189.069 123.881L189.453 123.977L190.991 124.357C191.503 124.486 192.012 124.629 192.523 124.763C192.778 124.833 193.034 124.898 193.285 124.971L194.047 125.19C196.075 125.781 198.046 126.537 200.002 127.335C198.03 126.587 196.02 125.941 193.981 125.401L193.219 125.194C192.964 125.125 192.707 125.065 192.457 125.001C191.945 124.876 191.436 124.743 190.922 124.624L189.381 124.274L188.996 124.187L188.61 124.106L187.836 123.944C183.712 123.081 179.549 122.416 175.375 121.838C167.026 120.696 158.625 119.954 150.215 119.437C141.805 118.919 133.381 118.652 124.961 118.564C116.541 118.475 108.111 118.592 99.6954 118.881C95.4864 119.031 91.2813 119.229 87.0802 119.476C82.8791 119.723 78.6794 120.024 74.4813 120.381C70.2881 120.734 66.1019 121.144 61.9226 121.61C60.8787 121.731 59.8337 121.845 58.7908 121.972L55.6612 122.36L52.5371 122.774C51.4964 122.914 50.4569 123.069 49.4173 123.211C41.104 124.424 32.8354 125.913 24.6897 127.854C20.6185 128.825 16.58 129.912 12.6067 131.157C9.23223 132.215 5.90452 133.386 2.65301 134.712C2.18679 134.902 1.66475 134.899 1.20026 134.705C0.735776 134.511 0.366345 134.142 0.172195 133.676L0.150424 133.635Z" />
<path d="M74.7348 135.03L74.7489 143.384C74.7489 143.506 74.713 143.542 74.5911 143.542H74.3353C74.2264 143.542 74.1883 143.505 74.1883 143.384L74.1818 139.415L69.0286 139.424L69.0362 143.393C69.0362 143.515 68.9992 143.551 68.8903 143.552H68.6345C68.5126 143.552 68.4756 143.516 68.4756 143.394L68.4614 135.039C68.4614 134.917 68.4973 134.881 68.6193 134.881H68.8751C68.9839 134.881 69.0209 134.918 69.0209 135.039L69.0275 138.9L74.1807 138.891L74.1742 135.031C74.1742 134.908 74.2101 134.872 74.32 134.872H74.5758C74.6978 134.871 74.7348 134.907 74.7348 135.03Z" />
<path d="M77.6217 134.866H77.8775C77.9864 134.866 78.0234 134.902 78.0234 135.024L78.0386 143.378C78.0386 143.5 78.0016 143.537 77.8928 143.537H77.637C77.515 143.537 77.478 143.5 77.478 143.378L77.4639 135.024C77.4639 134.903 77.5052 134.866 77.6217 134.866Z" />
<path d="M87.0582 139.32V140.749C87.0582 142.532 85.9184 143.695 83.799 143.695C81.6546 143.695 80.5072 142.542 80.504 140.673L80.4985 137.693C80.4985 135.837 81.6143 134.686 83.7707 134.683C85.6594 134.683 86.5618 135.411 86.9787 136.802C87.0146 136.924 86.9787 136.96 86.8698 137.009L86.6521 137.084C86.5433 137.12 86.4812 137.096 86.4442 136.986C86.0774 135.777 85.3557 135.204 83.774 135.208C81.9583 135.208 81.0591 136.141 81.0613 137.68L81.0668 140.672C81.0668 142.235 82.0214 143.174 83.8001 143.17C85.5538 143.17 86.515 142.225 86.5117 140.747V139.686H83.8992C83.7773 139.686 83.7402 139.636 83.7402 139.527V139.309C83.7402 139.2 83.7762 139.151 83.8981 139.15H86.8949C87.0211 139.153 87.0582 139.198 87.0582 139.32Z" />
<path d="M89.5719 134.845H89.8277C89.9366 134.845 89.9747 134.881 89.9747 135.003L89.9888 143.357C89.9888 143.479 89.9529 143.516 89.843 143.516H89.5882C89.4663 143.516 89.4293 143.48 89.4293 143.358L89.4141 135.005C89.4141 134.882 89.45 134.845 89.5719 134.845Z" />
<path d="M97.9893 134.989V135.208C97.9893 135.317 97.9523 135.354 97.8304 135.354L93.2585 135.361L93.2639 138.854L97.309 138.847C97.4178 138.847 97.4549 138.883 97.4549 138.994V139.212C97.4549 139.334 97.4178 139.37 97.309 139.371L93.2639 139.378L93.2704 142.979L98.0089 142.972C98.1178 142.972 98.1679 143.008 98.1679 143.118V143.336C98.1679 143.459 98.12 143.496 98.01 143.496L92.8699 143.504C92.7479 143.504 92.7109 143.468 92.7109 143.346L92.6968 134.993C92.6968 134.87 92.7327 134.833 92.8546 134.833L97.825 134.825C97.9523 134.831 97.9893 134.867 97.9893 134.989Z" />
<path d="M106.761 134.974L106.775 143.329C106.775 143.45 106.739 143.487 106.629 143.487H106.374C106.338 143.492 106.302 143.486 106.271 143.468C106.24 143.45 106.216 143.422 106.203 143.389L101.868 137.217C101.465 136.644 101.134 135.985 100.879 135.631H100.854C100.854 136.095 100.929 136.876 100.931 137.646L100.941 143.337C100.941 143.459 100.905 143.495 100.795 143.497H100.551C100.429 143.497 100.392 143.461 100.392 143.338L100.378 134.984C100.378 134.863 100.414 134.825 100.536 134.825H100.78C100.813 134.824 100.846 134.831 100.876 134.846C100.906 134.861 100.932 134.883 100.951 134.911L105.163 140.925C105.615 141.571 105.994 142.255 106.288 142.671H106.312C106.312 142.135 106.223 141.316 106.222 140.473L106.213 134.965C106.213 134.856 106.25 134.818 106.37 134.818H106.614C106.724 134.816 106.761 134.852 106.761 134.974Z" />
<path d="M112.523 134.634C114.642 134.634 115.789 135.776 115.789 137.646V140.625C115.789 142.494 114.648 143.644 112.523 143.648C110.38 143.648 109.232 142.506 109.229 140.637L109.224 137.657C109.236 135.788 110.38 134.638 112.523 134.634ZM112.523 135.159C110.744 135.159 109.795 136.093 109.802 137.655L109.807 140.636C109.807 142.199 110.761 143.125 112.539 143.122C114.294 143.122 115.242 142.189 115.24 140.626L115.235 137.647C115.229 136.083 114.278 135.156 112.524 135.159H112.523ZM113.639 132.446L113.748 132.58C113.833 132.666 113.833 132.715 113.724 132.764L111.577 134.013C111.479 134.049 111.431 134.049 111.382 134.001L111.296 133.903C111.223 133.818 111.235 133.781 111.308 133.733L113.365 132.423C113.469 132.373 113.554 132.348 113.645 132.446H113.639Z" />
<path d="M124.392 137.447C124.392 139.096 123.362 140.087 121.705 140.09H118.83V143.302C118.83 143.425 118.794 143.462 118.684 143.462H118.435C118.314 143.462 118.277 143.426 118.277 143.304L118.262 134.95C118.262 134.828 118.299 134.791 118.421 134.791H121.697C123.341 134.787 124.39 135.77 124.392 137.447ZM123.808 137.447C123.808 136.104 122.976 135.311 121.648 135.313L118.818 135.319L118.826 139.569H121.656C122.983 139.562 123.81 138.78 123.808 137.448V137.447Z" />
<path d="M129.553 134.605C131.673 134.605 132.819 135.747 132.819 137.616V140.596C132.819 142.464 131.679 143.614 129.553 143.618C127.41 143.618 126.263 142.476 126.259 140.608V137.627C126.266 135.759 127.409 134.608 129.553 134.605ZM129.553 135.13C127.775 135.13 126.826 136.063 126.832 137.626L126.837 140.607C126.837 142.169 127.792 143.096 129.571 143.093C131.324 143.093 132.272 142.16 132.27 140.597V137.616C132.259 136.053 131.308 135.127 129.554 135.13H129.553Z" />
<path d="M135.852 134.924L135.866 142.91L140.299 142.903C140.408 142.903 140.446 142.94 140.446 143.049V143.267C140.446 143.39 140.41 143.426 140.3 143.426L135.465 143.434C135.343 143.434 135.306 143.398 135.306 143.276L135.292 134.923C135.292 134.8 135.328 134.763 135.45 134.763H135.706C135.815 134.764 135.852 134.801 135.852 134.924Z" />
<path d="M142.492 134.753H142.748C142.857 134.753 142.894 134.791 142.895 134.912L142.909 143.266C142.909 143.389 142.873 143.425 142.763 143.425H142.507C142.385 143.425 142.348 143.389 142.348 143.266L142.334 134.912C142.333 134.787 142.369 134.753 142.492 134.753Z" />
<path d="M148.362 134.569C149.995 134.569 150.921 135.163 151.557 136.456C151.618 136.565 151.581 136.626 151.484 136.663L151.24 136.773C151.143 136.81 151.106 136.81 151.046 136.701C150.501 135.609 149.727 135.103 148.363 135.105C146.791 135.105 145.879 135.794 145.881 136.96C145.881 138.401 147.237 138.631 148.613 138.775C150.1 138.943 151.646 139.198 151.65 141.078C151.65 142.666 150.561 143.572 148.438 143.575C146.733 143.575 145.745 142.896 145.158 141.444C145.109 141.322 145.122 141.272 145.242 141.225L145.474 141.14C145.583 141.103 145.62 141.115 145.681 141.237C146.207 142.47 147.073 143.043 148.437 143.04C150.192 143.04 151.092 142.401 151.09 141.105C151.09 139.665 149.82 139.484 148.492 139.328C146.968 139.146 145.312 138.891 145.309 137C145.306 135.517 146.438 134.576 148.362 134.569Z" />
</g>
<defs>
<clipPath id="clip0">
<rect width="200" height="143.697" />
</clipPath>
</defs>
</svg>
