<svg width="497" height="454" viewBox="0 0 497 454" fill="none" xmlns="http://www.w3.org/2000/svg">
<path d="M405.721 368.116C361.742 444.29 214.241 348.377 138.067 304.398C61.8934 260.419 35.7943 163.016 79.7733 86.8417C123.752 10.6678 191.662 35.652 267.836 79.631C344.01 123.61 449.7 291.942 405.721 368.116Z" fill="#F2F9FD"/>
<path d="M330.723 245.44C330.723 191.277 286.932 147.37 232.913 147.37C178.893 147.37 135.102 191.277 135.102 245.44C135.102 299.603 178.893 343.51 232.913 343.51C286.932 343.51 330.723 299.603 330.723 245.44V245.44Z" fill="#44AADF"/>
<path d="M232.913 147.37C227.893 147.37 222.959 147.75 218.144 148.482C265.154 155.621 301.183 196.311 301.183 245.44C301.183 294.569 265.154 335.259 218.144 342.398C222.959 343.13 227.893 343.51 232.913 343.51C286.932 343.51 330.723 299.603 330.723 245.44C330.723 191.277 286.932 147.37 232.913 147.37V147.37Z" fill="#2392CC"/>
<path d="M220.199 185.484C205.132 194.926 193.83 210.032 202.306 227.029C210.782 244.024 229.616 237.414 247.038 235.054C264.46 232.694 251.276 286.514 261.634 299.733C271.993 312.951 301.185 286.514 298.361 269.517C294.178 244.353 292.712 235.525 326.613 217.587L326.704 217.553C315.277 178.859 280.687 150.148 239.037 147.568L239.033 147.716C239.033 147.716 235.266 176.042 220.199 185.484Z" fill="#C2E085"/>
<path d="M294.194 169.01C294.201 169.015 294.209 169.022 294.216 169.027C294.209 169.022 294.201 169.017 294.194 169.01Z" fill="#BAEB6C"/>
<path d="M306.155 180.45C306.155 180.453 306.157 180.455 306.16 180.455C306.157 180.453 306.157 180.453 306.155 180.45Z" fill="#BAEB6C"/>
<path d="M167.934 289.818C163.41 282.917 175.939 266.686 178.763 254.411C181.589 242.137 164.638 243.08 159.458 238.831C154.279 234.582 147.215 216.17 142.036 211.921L141.209 211.268C137.262 221.909 135.102 233.422 135.102 245.44C135.102 277.856 150.789 306.594 174.966 324.449L174.996 322.393C174.996 322.393 178.763 306.342 167.934 289.818V289.818Z" fill="#C2E085"/>
<path d="M298.362 269.517C298.341 269.394 298.321 269.274 298.3 269.151C296.429 276.711 293.683 283.925 290.175 290.677C295.738 284.111 299.455 276.106 298.362 269.517Z" fill="#BAEB6C"/>
<path d="M239.038 147.568L239.033 147.716C239.033 147.716 238.719 150.08 237.91 153.666C272.209 166.648 297.32 198.4 300.776 236.432C305.098 230.521 313.003 224.787 326.613 217.587L326.704 217.553C315.277 178.859 280.687 150.148 239.038 147.568Z" fill="#ADD65C"/>
<path d="M232.781 372C225.853 372 218.876 371.432 211.903 370.279C178.57 364.775 149.375 346.62 129.698 319.16C110.02 291.7 102.215 258.22 107.722 224.889C108.119 222.475 110.407 220.842 112.814 221.24C115.229 221.638 116.864 223.919 116.463 226.333C111.346 257.328 118.603 288.463 136.903 313.999C155.203 339.536 182.349 356.417 213.349 361.537C277.343 372.109 337.992 328.646 348.562 264.661C353.68 233.665 346.423 202.531 328.123 176.995C309.825 151.458 282.677 134.577 251.679 129.457C249.264 129.059 247.63 126.778 248.028 124.364C248.428 121.949 250.713 120.317 253.12 120.715C286.455 126.219 315.65 144.374 335.325 171.834C355.003 199.294 362.808 232.774 357.304 266.104C351.8 299.435 333.643 328.627 306.181 348.303C284.461 363.863 258.979 372 232.781 372V372Z" fill="#7AA329"/>
<path d="M205.88 181.028C158.581 173.002 129.238 113.449 129.238 113.449C129.238 113.449 176.585 66.9065 223.884 74.9299C271.183 82.9533 300.526 142.507 300.526 142.507C300.526 142.507 253.179 189.051 205.88 181.028Z" fill="#C2E085"/>
<path d="M223.884 74.9299C214.852 73.3976 205.821 73.8591 197.115 75.6029C242.439 85.7794 270.397 142.507 270.397 142.507C270.397 142.507 239.404 172.97 202.517 180.355C203.629 180.605 204.748 180.835 205.88 181.028C253.179 189.051 300.526 142.507 300.526 142.507C300.526 142.507 271.183 82.9533 223.884 74.9299V74.9299Z" fill="#99CC33"/>
<path d="M297.852 137.562L251.597 129.759L208.39 74.1251C204.943 74.3275 201.528 74.7685 198.159 75.4006L238.683 127.579L203.804 121.695L174.043 83.1898C171.251 84.4494 168.537 85.7862 165.92 87.1731L190.922 119.521L133.249 109.79C130.659 112.053 129.238 113.449 129.238 113.449C129.238 113.449 130.189 115.374 132.012 118.569L189.372 128.245L157.56 152.843C159.608 154.952 161.757 157.037 164.003 159.061L201.262 130.252L238.187 136.482L187.969 175.335C191.086 176.79 194.308 178.05 197.629 179.064L250.078 138.49L296.363 146.297C299.046 143.958 300.526 142.507 300.526 142.507C300.526 142.507 299.61 140.652 297.852 137.562V137.562Z" fill="#7AA329"/>
<path d="M332.697 123.22C345.385 93.1956 389.349 83.0874 389.349 83.0874C389.349 83.0874 412.742 121.658 400.053 151.683C387.367 181.708 343.401 191.816 343.401 191.816C343.401 191.816 320.008 153.245 332.697 123.22Z" fill="#C2E085"/>
<path d="M389.349 83.0874C389.349 83.0874 379.353 85.3882 367.516 91.0494C373.589 103.913 383.215 130.02 374.06 151.683C367.423 167.389 352.227 177.645 339.242 183.854C341.586 188.819 343.403 191.816 343.403 191.816C343.403 191.816 387.367 181.708 400.056 151.683C412.742 121.658 389.349 83.0874 389.349 83.0874Z" fill="#99CC33"/>
<path d="M403.648 126.919L369.84 141.102L392.037 88.0347C390.447 84.8972 389.349 83.0874 389.349 83.0874C389.349 83.0874 387.258 83.5694 383.854 84.6334L360.914 139.476L346.688 104.475C344.278 106.601 342.005 108.91 339.943 111.414L356.062 151.076L340.92 187.276C342.398 190.161 343.401 191.816 343.401 191.816C343.401 191.816 345.674 191.293 349.33 190.133L364.965 152.756L403.634 136.537C403.891 133.324 403.877 130.102 403.648 126.919V126.919Z" fill="#7AA329"/>
<path fill-rule="evenodd" clip-rule="evenodd" d="M55.0382 131.299L53.229 111.042C53.1746 110.434 53.7995 109.995 54.3537 110.252L72.8008 118.813C73.3549 119.07 73.4229 119.831 72.9231 120.183L56.2851 131.878C55.7853 132.229 55.0925 131.907 55.0382 131.299ZM50.0669 111.325C49.7951 108.282 52.9191 106.086 55.6901 107.372L74.1372 115.934C76.9082 117.22 77.2479 121.023 74.7487 122.78L58.1108 134.475C55.6116 136.232 52.1478 134.624 51.8761 131.581L50.0669 111.325Z" fill="#99CC33"/>
<path d="M53.229 111.042L55.0382 131.299C55.0925 131.907 55.7853 132.229 56.2851 131.878L72.9231 120.183C73.4229 119.831 73.3549 119.07 72.8008 118.813L54.3537 110.252C53.7995 109.995 53.1746 110.434 53.229 111.042Z" fill="#99CC33"/>
<path fill-rule="evenodd" clip-rule="evenodd" d="M350.937 437.733L356.54 418.758C356.709 418.188 357.431 418.014 357.84 418.444L371.472 432.785C371.881 433.215 371.671 433.928 371.093 434.067L351.858 438.702C351.28 438.841 350.769 438.303 350.937 437.733ZM353.578 417.883C354.42 415.033 358.031 414.162 360.079 416.317L373.71 430.657C375.758 432.811 374.706 436.374 371.816 437.07L352.582 441.705C349.693 442.401 347.133 439.708 347.975 436.858L353.578 417.883Z" fill="#0D354A"/>
<path fill-rule="evenodd" clip-rule="evenodd" d="M298.204 433.051L322.867 413.869C323.608 413.292 324.695 413.734 324.823 414.664L329.105 445.614C329.233 446.544 328.307 447.264 327.437 446.911L298.493 435.143C297.624 434.79 297.463 433.628 298.204 433.051ZM319.872 410.019C323.577 407.137 329.012 409.347 329.655 413.996L333.936 444.946C334.579 449.595 329.948 453.197 325.601 451.429L296.656 439.662C292.309 437.894 291.505 432.083 295.209 429.201L319.872 410.019Z" fill="#EBF5D6"/>
<path fill-rule="evenodd" clip-rule="evenodd" d="M16.0351 72.9045L48.8331 64.099C49.8185 63.8345 50.7207 64.7358 50.4571 65.7214L41.6839 98.5281C41.4204 99.5137 40.1887 99.8444 39.4669 99.1233L15.4421 75.1222C14.7203 74.4011 15.0498 73.1691 16.0351 72.9045ZM47.4586 58.9791C52.3852 57.6564 56.8963 62.163 55.5784 67.091L46.8053 99.8976C45.4874 104.826 39.329 106.479 35.7202 102.874L11.6954 78.8726C8.08653 75.2673 9.73385 69.1073 14.6605 67.7846L47.4586 58.9791Z" fill="#44AADF"/>
</svg>
