<svg width="426" height="454" viewBox="0 0 426 454" fill="none" xmlns="http://www.w3.org/2000/svg">
<path d="M405.721 368.336C361.742 444.555 214.241 348.585 138.067 304.58C61.8934 260.574 35.7943 163.113 79.7733 86.8936C123.752 10.6742 191.662 35.6733 267.836 79.6786C344.01 123.684 449.7 292.116 405.721 368.336Z" fill="#F2F9FD"/>
<path d="M330.723 245.587C330.723 191.391 286.932 147.458 232.913 147.458C178.893 147.458 135.102 191.391 135.102 245.587C135.102 299.782 178.893 343.715 232.913 343.715C286.932 343.715 330.723 299.782 330.723 245.587V245.587Z" fill="#44AADF"/>
<path d="M232.913 147.458C227.893 147.458 222.959 147.838 218.144 148.571C265.154 155.714 301.183 196.428 301.183 245.587C301.183 294.746 265.154 335.46 218.144 342.603C222.959 343.336 227.893 343.715 232.913 343.715C286.932 343.715 330.723 299.782 330.723 245.587C330.723 191.391 286.932 147.458 232.913 147.458V147.458Z" fill="#2392CC"/>
<path d="M220.199 185.595C205.132 195.043 193.83 210.157 202.306 227.164C210.782 244.169 229.616 237.556 247.038 235.195C264.46 232.834 251.276 286.685 261.634 299.912C271.993 313.138 301.185 286.685 298.361 269.678C294.178 244.499 292.712 235.666 326.613 217.717L326.704 217.683C315.277 178.966 280.687 150.238 239.037 147.656L239.033 147.804C239.033 147.804 235.266 176.147 220.199 185.595Z" fill="#C2E085"/>
<path d="M294.194 169.111C294.201 169.116 294.209 169.123 294.216 169.128C294.209 169.123 294.201 169.118 294.194 169.111Z" fill="#BAEB6C"/>
<path d="M306.155 180.558C306.155 180.56 306.157 180.563 306.16 180.563C306.157 180.56 306.157 180.56 306.155 180.558Z" fill="#BAEB6C"/>
<path d="M167.934 289.991C163.41 283.086 175.939 266.846 178.763 254.564C181.589 242.281 164.638 243.225 159.458 238.973C154.279 234.722 147.215 216.299 142.036 212.048L141.209 211.395C137.262 222.041 135.102 233.561 135.102 245.587C135.102 278.022 150.789 306.777 174.966 324.642L174.996 322.586C174.996 322.586 178.763 306.525 167.934 289.991V289.991Z" fill="#C2E085"/>
<path d="M298.362 269.678C298.341 269.555 298.321 269.435 298.3 269.312C296.429 276.876 293.683 284.094 290.175 290.851C295.738 284.281 299.455 276.271 298.362 269.678Z" fill="#BAEB6C"/>
<path d="M239.038 147.656L239.033 147.804C239.033 147.804 238.719 150.17 237.91 153.757C272.209 166.747 297.32 198.519 300.776 236.573C305.098 230.659 313.003 224.921 326.613 217.717L326.704 217.683C315.277 178.966 280.687 150.238 239.038 147.656Z" fill="#ADD65C"/>
<path d="M232.781 372.222C225.853 372.222 218.876 371.654 211.903 370.5C178.57 364.993 149.375 346.827 129.698 319.351C110.02 291.875 102.215 258.374 107.722 225.024C108.119 222.608 110.407 220.974 112.814 221.373C115.229 221.771 116.864 224.052 116.463 226.468C111.346 257.482 118.603 288.635 136.903 314.187C155.203 339.739 182.349 356.63 213.349 361.753C277.343 372.332 337.992 328.842 348.562 264.819C353.68 233.805 346.423 202.652 328.123 177.1C309.825 151.548 282.677 134.657 251.679 129.534C249.264 129.136 247.63 126.854 248.028 124.438C248.428 122.022 250.713 120.389 253.12 120.787C286.455 126.295 315.65 144.46 335.325 171.936C355.003 199.413 362.808 232.913 357.304 266.264C351.8 299.614 333.643 328.824 306.181 348.511C284.461 364.08 258.979 372.222 232.781 372.222V372.222Z" fill="#7AA329"/>
<path d="M205.88 181.136C158.581 173.106 129.238 113.516 129.238 113.516C129.238 113.516 176.585 66.9465 223.884 74.9747C271.183 83.0028 300.526 142.592 300.526 142.592C300.526 142.592 253.179 189.164 205.88 181.136Z" fill="#C2E085"/>
<path d="M223.884 74.9747C214.852 73.4414 205.821 73.9032 197.115 75.6481C242.439 85.8306 270.397 142.592 270.397 142.592C270.397 142.592 239.404 173.074 202.517 180.463C203.629 180.713 204.748 180.943 205.88 181.136C253.179 189.164 300.526 142.592 300.526 142.592C300.526 142.592 271.183 83.0029 223.884 74.9747V74.9747Z" fill="#99CC33"/>
<path d="M297.852 137.644L251.597 129.837L208.39 74.1694C204.943 74.3719 201.528 74.8132 198.159 75.4457L238.683 127.655L203.804 121.768L174.043 83.2395C171.251 84.4998 168.537 85.8375 165.92 87.2252L190.922 119.593L133.249 109.856C130.659 112.12 129.238 113.516 129.238 113.516C129.238 113.516 130.189 115.443 132.012 118.64L189.372 128.322L157.56 152.934C159.608 155.045 161.757 157.131 164.003 159.156L201.262 130.33L238.187 136.564L187.969 175.44C191.086 176.896 194.308 178.156 197.629 179.171L250.078 138.572L296.363 146.384C299.046 144.044 300.526 142.592 300.526 142.592C300.526 142.592 299.61 140.736 297.852 137.644V137.644Z" fill="#7AA329"/>
<path d="M332.697 123.294C345.385 93.2513 389.349 83.137 389.349 83.137C389.349 83.137 412.742 121.731 400.053 151.774C387.367 181.816 343.401 191.93 343.401 191.93C343.401 191.93 320.008 153.336 332.697 123.294Z" fill="#C2E085"/>
<path d="M389.349 83.137C389.349 83.137 379.353 85.4392 367.516 91.1037C373.589 103.975 383.215 130.098 374.06 151.774C367.423 167.489 352.227 177.751 339.242 183.964C341.586 188.932 343.403 191.93 343.403 191.93C343.403 191.93 387.367 181.816 400.056 151.774C412.742 121.731 389.349 83.137 389.349 83.137Z" fill="#99CC33"/>
<path d="M403.648 126.995L369.84 141.186L392.037 88.0872C390.447 84.9478 389.349 83.137 389.349 83.137C389.349 83.137 387.258 83.6192 383.854 84.6839L360.914 139.56L346.688 104.537C344.278 106.664 342.005 108.975 339.943 111.48L356.062 151.166L340.92 187.387C342.398 190.274 343.401 191.93 343.401 191.93C343.401 191.93 345.674 191.407 349.33 190.247L364.965 152.847L403.634 136.618C403.891 133.404 403.877 130.18 403.648 126.995V126.995Z" fill="#7AA329"/>
<path fill-rule="evenodd" clip-rule="evenodd" d="M55.0382 131.377L53.229 111.109C53.1746 110.5 53.7995 110.061 54.3537 110.318L72.8008 118.884C73.3549 119.142 73.4229 119.903 72.923 120.254L56.2851 131.956C55.7853 132.308 55.0925 131.986 55.0382 131.377ZM50.0669 111.391C49.7951 108.347 52.9191 106.15 55.6901 107.436L74.1372 116.003C76.9082 117.29 77.2479 121.095 74.7487 122.853L58.1108 134.555C55.6116 136.313 52.1478 134.704 51.8761 131.66L50.0669 111.391Z" fill="#99CC33"/>
<path d="M53.229 111.109L55.0382 131.377C55.0925 131.986 55.7853 132.308 56.2851 131.956L72.923 120.254C73.4229 119.903 73.3549 119.142 72.8008 118.884L54.3537 110.318C53.7995 110.061 53.1746 110.5 53.229 111.109Z" fill="#99CC33"/>
<path fill-rule="evenodd" clip-rule="evenodd" d="M350.937 437.994L356.54 419.008C356.709 418.438 357.431 418.264 357.84 418.695L371.472 433.043C371.881 433.474 371.671 434.187 371.093 434.327L351.858 438.964C351.28 439.104 350.769 438.565 350.937 437.994ZM353.578 418.133C354.42 415.281 358.031 414.41 360.079 416.565L373.71 430.914C375.758 433.07 374.706 436.635 371.816 437.331L352.582 441.969C349.693 442.665 347.133 439.971 347.975 437.119L353.578 418.133Z" fill="#0D354A"/>
<path fill-rule="evenodd" clip-rule="evenodd" d="M298.204 433.31L322.867 414.116C323.608 413.539 324.695 413.982 324.823 414.912L329.105 445.88C329.233 446.811 328.307 447.532 327.437 447.178L298.493 435.404C297.624 435.05 297.463 433.887 298.204 433.31ZM319.872 410.264C323.577 407.381 329.012 409.591 329.655 414.243L333.936 445.212C334.579 449.864 329.948 453.468 325.601 451.699L296.656 439.925C292.309 438.156 291.505 432.341 295.209 429.458L319.872 410.264Z" fill="#EBF5D6"/>
<path fill-rule="evenodd" clip-rule="evenodd" d="M16.0351 72.9481L48.8331 64.1373C49.8185 63.8726 50.7207 64.7745 50.4571 65.7607L41.6839 98.587C41.4204 99.5732 40.1887 99.9041 39.4669 99.1826L15.4421 75.1671C14.7203 74.4456 15.0498 73.2128 16.0351 72.9481ZM47.4586 59.0143C52.3852 57.6908 56.8963 62.2001 55.5784 67.1311L46.8053 99.9574C45.4874 104.888 39.329 106.543 35.7202 102.935L11.6954 78.9197C8.08653 75.3123 9.73385 69.1486 14.6605 67.8251L47.4586 59.0143Z" fill="#44AADF"/>
</svg>
