<svg width="70" height="70" viewBox="0 0 70 70" fill="none" xmlns="http://www.w3.org/2000/svg">
<path d="M67.2716 55.4027C64.7448 58.4064 60.0797 59.6315 51.1703 59.6315H18.829C9.71578 59.6315 4.9715 58.3272 2.45424 55.1294C0 52.0116 0 47.4176 0 41.0592V28.9405C0 16.6225 2.91197 10.3683 18.829 10.3683H51.1704C58.8967 10.3683 63.1779 11.4495 65.9477 14.1002C68.7881 16.8185 70 21.2568 70 28.9405V41.0592C70 47.7646 69.8101 52.3857 67.2716 55.4027ZM44.9403 33.3268L30.2542 25.6515C29.926 25.4799 29.5668 25.3947 29.2083 25.3947C28.8023 25.3947 28.3972 25.5039 28.0384 25.7212C27.3628 26.1305 26.9503 26.8629 26.9503 27.6527V42.9543C26.9503 43.7428 27.3617 44.4745 28.036 44.8841C28.7104 45.2937 29.5493 45.3217 30.249 44.9582L44.9351 37.3323C45.6822 36.9444 46.1515 36.1731 46.1526 35.3314C46.1535 34.489 45.6863 33.7165 44.9403 33.3268Z" fill="#99CC33"/>
</svg>
