<svg width="126" height="126" viewBox="0 0 126 126" fill="none" xmlns="http://www.w3.org/2000/svg">
<path d="M88.5742 39.375V96.4491C88.5742 98.6147 90.3441 100.387 92.5117 100.387H120.094C122.24 100.387 124.031 98.6147 124.031 96.4491V39.375H88.5742Z" fill="#C2E085"/>
<path d="M106.312 55.125C108.478 55.125 110.25 56.8969 110.25 59.0625C110.25 61.2478 108.478 63 106.312 63C104.127 63 102.375 61.2478 102.375 59.0625C102.375 56.8969 104.127 55.125 106.312 55.125Z" fill="#D6EBAD"/>
<path d="M124.031 29.5509V33.4687H88.5742V29.5509C88.5742 27.3853 90.3441 25.6134 92.5117 25.6134H120.094C122.24 25.6134 124.031 27.3853 124.031 29.5509V29.5509Z" fill="#C2E085"/>
<path d="M88.5742 33.4688H124.031V39.375H88.5742V33.4688Z" fill="#C2E085"/>
<path d="M29.5115 94.4803H53.1365H57.074C59.2396 94.4803 61.0115 96.2325 61.0115 98.4178V100.387H21.6365V98.4178C21.6365 96.2325 23.4064 94.4803 25.574 94.4803H29.5115Z" fill="#C2E085"/>
<path d="M51.1677 86.6053L53.1365 94.4803H29.5115L31.4802 86.6053H51.1677Z" fill="#C2E085"/>
<path d="M2.06719 78.7303H80.6794V82.6678C80.6794 84.8334 78.9075 86.6053 76.7419 86.6053H68.8472H51.1678H31.4803H5.90625C3.74062 86.6053 1.96875 84.8334 1.96875 82.6678V78.7303H2.06719Z" fill="#C2E085"/>
<path d="M80.6794 29.5509V78.7303H2.06719H1.96875V29.5509C1.96875 27.3853 3.74062 25.6134 5.90625 25.6134H76.7419C78.9075 25.6134 80.6794 27.3853 80.6794 29.5509V29.5509Z" fill="#D6EBAD"/>
<path d="M48.2283 78.7303H38.3846L30.5017 25.6134H40.3455L48.2283 78.7303Z" fill="white"/>
<path d="M52.1699 78.7303H50.209L42.3262 25.6134H44.287L52.1699 78.7303Z" fill="white"/>
<path d="M41.387 84.6444C40.2983 84.6444 39.4084 83.7644 39.4084 82.6757C39.4084 81.5869 40.2786 80.7069 41.3654 80.7069H41.387C42.4738 80.7069 43.3558 81.5869 43.3558 82.6757C43.3558 83.7644 42.4738 84.6444 41.387 84.6444Z" fill="#7AA329"/>
<path d="M80.6813 80.7069H2.06714C0.97842 80.7069 0.0983887 79.8269 0.0983887 78.7382C0.0983887 77.6494 0.97842 76.7694 2.06714 76.7694H80.6833C81.772 76.7694 82.652 77.6494 82.652 78.7382C82.652 79.8269 81.77 80.7069 80.6813 80.7069V80.7069Z" fill="#7AA329"/>
<path d="M76.7438 88.5819H5.91211C2.6558 88.5819 0.00585938 85.932 0.00585938 82.6757V29.5509C0.00585938 26.2946 2.6558 23.6447 5.91211 23.6447H76.7458C80.0021 23.6447 82.652 26.2946 82.652 29.5509V82.6757C82.6501 85.932 80.0021 88.5819 76.7438 88.5819ZM5.91211 27.5822C4.82536 27.5822 3.94336 28.4642 3.94336 29.5509V82.6757C3.94336 83.7624 4.82536 84.6444 5.91211 84.6444H76.7458C77.8325 84.6444 78.7145 83.7624 78.7145 82.6757V29.5509C78.7145 28.4642 77.8325 27.5822 76.7458 27.5822H5.91211Z" fill="#7AA329"/>
<path d="M29.5232 96.449C29.3657 96.449 29.2042 96.4293 29.0448 96.39C27.9895 96.1262 27.3477 95.0571 27.6115 94.0038L29.5783 86.1367C29.8421 85.0795 30.9092 84.4337 31.9644 84.7035C33.0197 84.9673 33.6615 86.0363 33.3977 87.0896L31.4309 94.9567C31.2084 95.8545 30.4052 96.449 29.5232 96.449V96.449Z" fill="#7AA329"/>
<path d="M53.1325 96.449C52.2505 96.449 51.4492 95.8525 51.2248 94.9567L49.258 87.0896C48.9922 86.0363 49.634 84.9673 50.6913 84.7035C51.7445 84.4337 52.8136 85.0795 53.0774 86.1367L55.0442 94.0038C55.31 95.0571 54.6681 96.1262 53.6109 96.39C53.4515 96.4293 53.29 96.449 53.1325 96.449Z" fill="#7AA329"/>
<path d="M21.6462 100.387C20.5575 100.387 19.6775 99.5065 19.6775 98.4178C19.6775 95.1615 22.3274 92.5115 25.5837 92.5115C26.6725 92.5115 27.5525 93.3916 27.5525 94.4803C27.5525 95.569 26.6725 96.449 25.5837 96.449C24.497 96.449 23.615 97.331 23.615 98.4178C23.615 99.5065 22.735 100.387 21.6462 100.387Z" fill="#7AA329"/>
<path d="M61.0095 100.387C59.9208 100.387 59.0408 99.5065 59.0408 98.4178C59.0408 97.331 58.1588 96.449 57.072 96.449C55.9833 96.449 55.1033 95.569 55.1033 94.4803C55.1033 93.3916 55.9833 92.5115 57.072 92.5115C60.3283 92.5115 62.9783 95.1615 62.9783 98.4178C62.9783 99.5065 62.0982 100.387 61.0095 100.387Z" fill="#7AA329"/>
<path d="M57.0719 96.449H25.5837C24.495 96.449 23.615 95.569 23.615 94.4803C23.615 93.3916 24.495 92.5115 25.5837 92.5115H57.0719C58.1606 92.5115 59.0407 93.3916 59.0407 94.4803C59.0407 95.569 58.1606 96.449 57.0719 96.449Z" fill="#7AA329"/>
<path d="M21.6462 102.355C20.5575 102.355 19.6775 101.475 19.6775 100.387V98.4178C19.6775 97.3291 20.5575 96.449 21.6462 96.449C22.735 96.449 23.615 97.3291 23.615 98.4178V100.387C23.615 101.475 22.735 102.355 21.6462 102.355Z" fill="#7AA329"/>
<path d="M61.0094 102.355H21.6462C20.5575 102.355 19.6775 101.475 19.6775 100.387C19.6775 99.2978 20.5575 98.4178 21.6462 98.4178H61.0094C62.0981 98.4178 62.9782 99.2978 62.9782 100.387C62.9782 101.475 62.0981 102.355 61.0094 102.355Z" fill="#7AA329"/>
<path d="M61.0095 102.355C59.9208 102.355 59.0408 101.475 59.0408 100.387V98.4178C59.0408 97.3291 59.9208 96.449 61.0095 96.449C62.0982 96.449 62.9783 97.3291 62.9783 98.4178V100.387C62.9783 101.475 62.0982 102.355 61.0095 102.355Z" fill="#7AA329"/>
<path d="M120.088 102.355H92.5232C89.2669 102.355 86.6169 99.7053 86.6169 96.449V29.5509C86.6169 26.2946 89.2669 23.6447 92.5232 23.6447H120.088C123.344 23.6447 125.994 26.2946 125.994 29.5509V96.449C125.994 99.7073 123.344 102.355 120.088 102.355ZM92.5232 27.5822C91.4364 27.5822 90.5544 28.4642 90.5544 29.5509V96.449C90.5544 97.5358 91.4364 98.4178 92.5232 98.4178H120.088C121.174 98.4178 122.056 97.5358 122.056 96.449V29.5509C122.056 28.4642 121.174 27.5822 120.088 27.5822H92.5232Z" fill="#7AA329"/>
<path d="M124.025 35.4493H88.5857C87.497 35.4493 86.6169 34.5692 86.6169 33.4805C86.6169 32.3918 87.497 31.5118 88.5857 31.5118H124.025C125.114 31.5118 125.994 32.3918 125.994 33.4805C125.994 34.5692 125.114 35.4493 124.025 35.4493Z" fill="#7AA329"/>
<path d="M124.025 41.3516H88.5857C87.497 41.3516 86.6169 40.4715 86.6169 39.3828C86.6169 38.2941 87.497 37.4141 88.5857 37.4141H124.025C125.114 37.4141 125.994 38.2941 125.994 39.3828C125.994 40.4715 125.114 41.3516 124.025 41.3516Z" fill="#7AA329"/>
<path d="M106.306 64.9766C103.05 64.9766 100.4 62.3266 100.4 59.0703C100.4 55.814 103.05 53.1641 106.306 53.1641C109.563 53.1641 112.213 55.814 112.213 59.0703C112.213 62.3266 109.563 64.9766 106.306 64.9766ZM106.306 57.1016C105.22 57.1016 104.338 57.9836 104.338 59.0703C104.338 60.1571 105.22 61.0391 106.306 61.0391C107.393 61.0391 108.275 60.1571 108.275 59.0703C108.275 57.9836 107.393 57.1016 106.306 57.1016Z" fill="#7AA329"/>
<path d="M114.181 80.7305H98.4314C97.3427 80.7305 96.4626 79.8505 96.4626 78.7618C96.4626 77.6731 97.3427 76.793 98.4314 76.793H114.181C115.27 76.793 116.15 77.6731 116.15 78.7618C116.15 79.8505 115.27 80.7305 114.181 80.7305Z" fill="#7AA329"/>
<path d="M114.181 86.6368H98.4314C97.3427 86.6368 96.4626 85.7567 96.4626 84.668C96.4626 83.5793 97.3427 82.6993 98.4314 82.6993H114.181C115.27 82.6993 116.15 83.5793 116.15 84.668C116.15 85.7567 115.27 86.6368 114.181 86.6368Z" fill="#7AA329"/>
<path d="M114.181 92.543H98.4314C97.3427 92.543 96.4626 91.663 96.4626 90.5743C96.4626 89.4856 97.3427 88.6055 98.4314 88.6055H114.181C115.27 88.6055 116.15 89.4856 116.15 90.5743C116.15 91.663 115.27 92.543 114.181 92.543Z" fill="#7AA329"/>
</svg>
